<?xml version="1.0" encoding="UTF-8"?>
<svg xmlns="http://www.w3.org/2000/svg" version="1.1" viewBox="0 0 1920 1080">
  <defs>
    <style>
      .cls-1 {
        stroke-width: 1.79px;
      }

      .cls-1, .cls-2 {
        fill: none;
      }

      .cls-1, .cls-2, .cls-3 {
        stroke: #fff;
        stroke-miterlimit: 10;
      }

      .cls-2, .cls-3 {
        stroke-width: 2.89px;
      }

      .cls-4 {
        fill: #14413a;
      }

      .cls-3 {
        fill: #1f7847;
      }

      .cls-5 {
        fill: #fff;
        font-family: BebasNeue-Regular, 'Bebas Neue';
        font-size: 290.61px;
        letter-spacing: -.01em;
      }
    </style>
  </defs>
  <!-- Generator: Adobe Illustrator 28.7.1, SVG Export Plug-In . SVG Version: 1.2.0 Build 142)  -->
  <g>
    <g id="Layer_1">
      <rect class="cls-3" x="220" y="102" width="1423.88" height="858" rx="16.41" ry="16.41"/>
      <path class="cls-1" d="M1389,740.34"/>
      <path class="cls-2" d="M423.86,664.11v-345.6c0-16.85,14.4-30.49,32.14-30.49h41.77c4.39,0,7.96-3.41,7.96-7.62v-5.59c0-8.42,7.12-15.24,15.91-15.24h174.38c8.78,0,15.9,6.83,15.91,15.24,0,2,0,3.91,0,5.64,0,4.2,3.51,7.58,7.9,7.58,72.39,0,618.59,0,618.59,0,36.92,1.37,69.76,98.65,33.89,104.35-18.21,2.89-58.08-.08-79.32.61-5.49.23-15.12.3-20.53.46-6.44.08-5.09,14.48-1.35,19.44,2.15,2.82,9.66,12.84,10.62,13.83,42.8,47.34,53.68,72.52,100.46,108.65,10.26,7.93,51.07,20.74,71.44,31.11,10.34,5.34,16.71,15.63,16.71,26.91v60.08"/>
      <rect class="cls-2" x="491.08" y="391.89" width="206.18" height="139.87" rx="4.34" ry="4.34"/>
      <rect class="cls-2" x="1178.08" y="314.82" width="162.33" height="52.54" rx="2.36" ry="2.36"/>
      <path class="cls-2" d="M1235.07,417.47l91.87,117.04c4.87,6.2.25,15.07-7.85,15.07h-217.08c-16.27,0-29.47-12.64-29.47-28.23v-106.9c0-10.68,7.87-19.11,19.01-18.7,27.11,1,76.32,2.56,104.94,2.96,15.21.21,29.45,7.12,38.59,18.77Z"/>
      <path class="cls-2" d="M782.55,639.63v-236.76c0-11.36,9.17-20.58,20.48-20.58h111.76c11.31,0,20.48,9.21,20.48,20.58v236.76"/>
      <g>
        <text class="cls-5" transform="translate(406.25 831.92) scale(.96 1)"><tspan x="0" y="0">WILD WHEELS</tspan></text>
        <text class="cls-5" transform="translate(398.91 831.92) scale(.96 1)"><tspan x="0" y="0">WILD WHEELS</tspan></text>
      </g>
      <path class="cls-4" d="M1758,202.69"/>
    </g>
  </g>
</svg>