<svg xmlns="http://www.w3.org/2000/svg" xmlns:xlink="http://www.w3.org/1999/xlink" width="559" zoomAndPan="magnify" viewBox="0 0 419.25 595.499987" height="794" preserveAspectRatio="xMidYMid meet" version="1.0"><defs><g/><clipPath id="b252bd8acf"><path d="M 11.515625 160.542969 L 410.203125 160.542969 L 410.203125 431.0625 L 11.515625 431.0625 Z M 11.515625 160.542969 " clip-rule="nonzero"/></clipPath><clipPath id="53039e8757"><path d="M 61 103.929688 L 176 103.929688 L 176 269 L 61 269 Z M 61 103.929688 " clip-rule="nonzero"/></clipPath></defs><path fill="#16433b" d="M 272.859375 230.199219 L 273.675781 238.128906 C 276.300781 237.875 279.015625 237.738281 281.75 237.738281 C 284.007812 237.738281 286.339844 237.832031 288.667969 238.007812 L 289.300781 230.0625 C 286.757812 229.867188 284.222656 229.773438 281.75 229.773438 C 278.746094 229.773438 275.753906 229.914062 272.859375 230.199219 " fill-opacity="1" fill-rule="nonzero"/><path fill="#16433b" d="M 241.472656 240.066406 L 245.597656 246.945312 C 249.871094 244.5 254.421875 242.519531 259.117188 241.050781 L 256.632812 233.460938 C 251.367188 235.105469 246.265625 237.324219 241.472656 240.066406 " fill-opacity="1" fill-rule="nonzero"/><path fill="#16433b" d="M 132.375 348.878906 C 137.757812 347.8125 143.058594 346.3125 148.121094 344.421875 L 145.203125 336.976562 C 140.554688 338.710938 135.695312 340.085938 130.746094 341.070312 L 132.375 348.878906 " fill-opacity="1" fill-rule="nonzero"/><path fill="#16433b" d="M 216.976562 261.375 L 223.394531 266.300781 C 226.601562 262.316406 230.039062 258.699219 233.617188 255.554688 L 228.144531 249.636719 C 224.226562 253.085938 220.472656 257.035156 216.976562 261.375 " fill-opacity="1" fill-rule="nonzero"/><path fill="#16433b" d="M 100.582031 342.546875 L 99.859375 350.484375 C 103.503906 350.800781 107.152344 350.964844 110.707031 350.964844 C 112.527344 350.964844 114.355469 350.925781 116.144531 350.839844 L 115.757812 342.878906 C 114.097656 342.957031 112.394531 342.992188 110.707031 342.992188 C 107.394531 342.992188 103.988281 342.84375 100.582031 342.546875 " fill-opacity="1" fill-rule="nonzero"/><path fill="#16433b" d="M 171.128906 322.164062 C 167.179688 325.324219 163.019531 328.164062 158.757812 330.601562 L 162.894531 337.476562 C 167.515625 334.828125 172.027344 331.753906 176.300781 328.332031 L 171.128906 322.164062 " fill-opacity="1" fill-rule="nonzero"/><path fill="#16433b" d="M 191.816406 300.488281 C 188.746094 304.605469 185.492188 308.480469 182.148438 312 L 188.144531 317.417969 C 191.699219 313.664062 195.15625 309.546875 198.414062 305.179688 L 191.816406 300.488281 " fill-opacity="1" fill-rule="nonzero"/><path fill="#16433b" d="M 68.1875 344.019531 C 73.390625 345.667969 78.648438 347.046875 83.8125 348.113281 L 85.503906 340.316406 C 80.617188 339.304688 75.640625 338.003906 70.714844 336.4375 L 68.1875 344.019531 " fill-opacity="1" fill-rule="nonzero"/><path fill="#16433b" d="M 332.625 249.9375 C 337.160156 251.941406 341.808594 254.210938 346.441406 256.683594 L 350.359375 249.691406 C 345.546875 247.121094 340.714844 244.761719 335.988281 242.675781 L 332.625 249.9375 " fill-opacity="1" fill-rule="nonzero"/><path fill="#16433b" d="M 303.644531 240.242188 C 308.410156 241.285156 313.355469 242.667969 318.347656 244.355469 L 321.019531 236.824219 C 315.738281 235.039062 310.492188 233.570312 305.429688 232.464844 L 303.644531 240.242188 " fill-opacity="1" fill-rule="nonzero"/><g clip-path="url(#b252bd8acf)"><path fill="#16433b" d="M 308.042969 317.644531 L 303.675781 317.921875 L 300.460938 320.886719 L 246.132812 371 L 195.660156 219.125 L 249.363281 173.3125 L 324.875 176.136719 L 364.621094 257.9375 C 364.464844 257.84375 364.3125 257.746094 364.160156 257.648438 L 359.785156 264.378906 C 363.726562 266.820312 367.65625 269.410156 371.492188 272.085938 L 391.074219 312.386719 Z M 332.734375 164.085938 L 245.019531 160.804688 L 186.402344 210.8125 L 171.917969 208.261719 C 170.027344 211.945312 167.957031 215.761719 165.714844 219.691406 L 183.917969 222.902344 L 203.585938 282.074219 C 202.480469 284.085938 201.347656 286.054688 200.203125 287.960938 L 206.796875 291.742188 L 234.660156 375.59375 L 150.347656 371.738281 L 146.703125 371.570312 L 143.554688 373.414062 L 76.617188 412.578125 L 53.367188 337.789062 L 56.371094 331.105469 C 54.160156 330.15625 52.175781 329.25 50.457031 328.421875 L 26.074219 249.976562 L 71.683594 220.519531 C 69.546875 216.800781 67.5625 213.183594 65.738281 209.679688 L 11.515625 244.699219 L 69.445312 431.0625 L 149.785156 384.0625 L 245.425781 388.433594 L 308.824219 329.957031 L 410.203125 323.53125 L 332.734375 164.085938 " fill-opacity="1" fill-rule="nonzero"/></g><g clip-path="url(#53039e8757)"><path fill="#16433b" d="M 87.582031 157.046875 C 87.582031 139.996094 101.410156 126.167969 118.460938 126.167969 C 135.515625 126.167969 149.34375 139.996094 149.34375 157.046875 C 149.34375 174.101562 135.515625 187.929688 118.460938 187.929688 C 101.410156 187.929688 87.582031 174.101562 87.582031 157.046875 Z M 175.128906 160.59375 C 175.128906 129.296875 149.761719 103.925781 118.460938 103.925781 C 87.164062 103.925781 61.792969 129.296875 61.792969 160.59375 C 61.792969 197.148438 118.460938 268.605469 118.460938 268.605469 C 118.460938 268.605469 175.128906 197.148438 175.128906 160.59375 " fill-opacity="1" fill-rule="nonzero"/></g><g fill="#ffffff" fill-opacity="1"><g transform="translate(310.829908, 500.038417)"><g><path d="M 1.1875 -0.828125 C 1.1875 -1.171875 1.265625 -1.429688 1.421875 -1.609375 C 1.578125 -1.796875 1.804688 -1.890625 2.109375 -1.890625 C 2.410156 -1.890625 2.644531 -1.796875 2.8125 -1.609375 C 2.976562 -1.429688 3.0625 -1.171875 3.0625 -0.828125 C 3.0625 -0.484375 2.972656 -0.222656 2.796875 -0.046875 C 2.628906 0.128906 2.398438 0.21875 2.109375 0.21875 C 1.835938 0.21875 1.613281 0.140625 1.4375 -0.015625 C 1.269531 -0.179688 1.1875 -0.453125 1.1875 -0.828125 Z M 1.1875 -0.828125 "/></g></g></g></svg>