<svg xmlns="http://www.w3.org/2000/svg" xmlns:xlink="http://www.w3.org/1999/xlink" width="250" zoomAndPan="magnify" viewBox="0 0 187.5 187.499992" height="250" preserveAspectRatio="xMidYMid meet" version="1.0"><defs><g/><clipPath id="f4eaa802b3"><path d="M 11.640625 49.570312 L 175.359375 49.570312 L 175.359375 160.65625 L 11.640625 160.65625 Z M 11.640625 49.570312 " clip-rule="nonzero"/></clipPath><clipPath id="6dfbb14c12"><path d="M 32 26.320312 L 79 26.320312 L 79 94 L 32 94 Z M 32 26.320312 " clip-rule="nonzero"/></clipPath></defs><path fill="#16433b" d="M 118.957031 78.171875 L 119.296875 81.429688 C 120.371094 81.324219 121.488281 81.269531 122.609375 81.269531 C 123.539062 81.269531 124.496094 81.308594 125.453125 81.378906 L 125.710938 78.117188 C 124.667969 78.039062 123.625 78 122.609375 78 C 121.375 78 120.148438 78.058594 118.957031 78.171875 " fill-opacity="1" fill-rule="nonzero"/><path fill="#16433b" d="M 106.070312 82.226562 L 107.765625 85.050781 C 109.519531 84.046875 111.386719 83.230469 113.316406 82.628906 L 112.296875 79.511719 C 110.132812 80.1875 108.039062 81.101562 106.070312 82.226562 " fill-opacity="1" fill-rule="nonzero"/><path fill="#16433b" d="M 61.269531 126.910156 C 63.480469 126.472656 65.65625 125.855469 67.734375 125.078125 L 66.539062 122.019531 C 64.628906 122.734375 62.632812 123.300781 60.601562 123.703125 L 61.269531 126.910156 " fill-opacity="1" fill-rule="nonzero"/><path fill="#16433b" d="M 96.011719 90.976562 L 98.644531 92.996094 C 99.964844 91.363281 101.375 89.875 102.84375 88.585938 L 100.597656 86.15625 C 98.988281 87.570312 97.445312 89.195312 96.011719 90.976562 " fill-opacity="1" fill-rule="nonzero"/><path fill="#16433b" d="M 48.214844 124.308594 L 47.917969 127.570312 C 49.414062 127.699219 50.914062 127.765625 52.371094 127.765625 C 53.117188 127.765625 53.871094 127.75 54.605469 127.714844 L 54.445312 124.445312 C 53.761719 124.476562 53.066406 124.492188 52.371094 124.492188 C 51.011719 124.492188 49.613281 124.429688 48.214844 124.308594 " fill-opacity="1" fill-rule="nonzero"/><path fill="#16433b" d="M 77.183594 115.9375 C 75.5625 117.234375 73.855469 118.402344 72.105469 119.402344 L 73.800781 122.226562 C 75.699219 121.136719 77.554688 119.875 79.308594 118.472656 L 77.183594 115.9375 " fill-opacity="1" fill-rule="nonzero"/><path fill="#16433b" d="M 85.679688 107.039062 C 84.417969 108.726562 83.082031 110.320312 81.710938 111.765625 L 84.171875 113.988281 C 85.632812 112.449219 87.050781 110.757812 88.390625 108.964844 L 85.679688 107.039062 " fill-opacity="1" fill-rule="nonzero"/><path fill="#16433b" d="M 34.910156 124.914062 C 37.046875 125.589844 39.207031 126.15625 41.328125 126.59375 L 42.023438 123.394531 C 40.015625 122.976562 37.972656 122.441406 35.949219 121.800781 L 34.910156 124.914062 " fill-opacity="1" fill-rule="nonzero"/><path fill="#16433b" d="M 143.5 86.277344 C 145.363281 87.101562 147.273438 88.035156 149.175781 89.050781 L 150.785156 86.179688 C 148.808594 85.121094 146.824219 84.152344 144.882812 83.296875 L 143.5 86.277344 " fill-opacity="1" fill-rule="nonzero"/><path fill="#16433b" d="M 131.601562 82.296875 C 133.558594 82.726562 135.589844 83.292969 137.636719 83.988281 L 138.734375 80.894531 C 136.566406 80.160156 134.414062 79.558594 132.332031 79.101562 L 131.601562 82.296875 " fill-opacity="1" fill-rule="nonzero"/><g clip-path="url(#f4eaa802b3)"><path fill="#16433b" d="M 133.40625 114.082031 L 131.613281 114.195312 L 130.292969 115.414062 L 107.984375 135.992188 L 87.257812 73.625 L 109.3125 54.8125 L 140.320312 55.972656 L 156.640625 89.566406 C 156.578125 89.523438 156.511719 89.484375 156.449219 89.445312 L 154.65625 92.210938 C 156.273438 93.210938 157.886719 94.277344 159.460938 95.375 L 167.503906 111.921875 Z M 143.546875 51.023438 L 107.527344 49.675781 L 83.457031 70.210938 L 77.507812 69.164062 C 76.730469 70.679688 75.882812 72.246094 74.960938 73.859375 L 82.4375 75.175781 L 90.511719 99.476562 C 90.058594 100.300781 89.59375 101.109375 89.125 101.894531 L 91.832031 103.445312 L 103.273438 137.878906 L 68.652344 136.296875 L 67.152344 136.226562 L 65.859375 136.984375 L 38.371094 153.066406 L 28.824219 122.355469 L 30.058594 119.609375 C 29.152344 119.222656 28.335938 118.847656 27.632812 118.507812 L 17.617188 86.296875 L 36.347656 74.199219 C 35.46875 72.671875 34.65625 71.1875 33.90625 69.746094 L 11.640625 84.128906 L 35.429688 160.65625 L 68.417969 141.355469 L 107.695312 143.152344 L 133.726562 119.136719 L 175.359375 116.5 L 143.546875 51.023438 " fill-opacity="1" fill-rule="nonzero"/></g><g clip-path="url(#6dfbb14c12)"><path fill="#16433b" d="M 42.875 48.132812 C 42.875 41.132812 48.554688 35.453125 55.558594 35.453125 C 62.558594 35.453125 68.238281 41.132812 68.238281 48.132812 C 68.238281 55.136719 62.558594 60.816406 55.558594 60.816406 C 48.554688 60.816406 42.875 55.136719 42.875 48.132812 Z M 78.828125 49.589844 C 78.828125 36.738281 68.410156 26.320312 55.558594 26.320312 C 42.703125 26.320312 32.285156 36.738281 32.285156 49.589844 C 32.285156 64.601562 55.558594 93.945312 55.558594 93.945312 C 55.558594 93.945312 78.828125 64.601562 78.828125 49.589844 " fill-opacity="1" fill-rule="nonzero"/></g><g fill="#ffffff" fill-opacity="1"><g transform="translate(131.668578, 168.435031)"><g><path d="M 0.453125 -0.3125 C 0.453125 -0.445312 0.476562 -0.546875 0.53125 -0.609375 C 0.59375 -0.671875 0.679688 -0.703125 0.796875 -0.703125 C 0.910156 -0.703125 1 -0.671875 1.0625 -0.609375 C 1.125 -0.546875 1.15625 -0.445312 1.15625 -0.3125 C 1.15625 -0.1875 1.117188 -0.0859375 1.046875 -0.015625 C 0.984375 0.046875 0.898438 0.078125 0.796875 0.078125 C 0.691406 0.078125 0.609375 0.0507812 0.546875 0 C 0.484375 -0.0625 0.453125 -0.164062 0.453125 -0.3125 Z M 0.453125 -0.3125 "/></g></g></g></svg>