<svg xmlns="http://www.w3.org/2000/svg" xmlns:xlink="http://www.w3.org/1999/xlink" width="559" zoomAndPan="magnify" viewBox="0 0 419.25 595.499986" height="794" preserveAspectRatio="xMidYMid meet" version="1.0"><defs><g/><clipPath id="dfa223397a"><path d="M 100.527344 193 L 185 193 L 185 299 L 100.527344 299 Z M 100.527344 193 " clip-rule="nonzero"/></clipPath></defs><path fill="#16433b" d="M 215.585938 197.695312 C 202.703125 197.695312 190.941406 190.582031 185.367188 178.714844 C 181.035156 169.570312 180.832031 159.101562 184.820312 150.007812 C 188.761719 141.011719 196.46875 134.15625 205.96875 131.195312 C 205.976562 131.191406 205.984375 131.191406 205.996094 131.1875 C 211.191406 129.605469 221.308594 129.75 226.421875 131.480469 C 238.558594 135.644531 247.296875 145.988281 249.234375 158.480469 C 250.585938 166.984375 248.742188 175.585938 244.03125 182.679688 C 239.320312 189.78125 232.144531 194.773438 223.835938 196.726562 C 221.066406 197.382812 218.300781 197.695312 215.585938 197.695312 Z M 208.238281 138.515625 C 200.757812 140.855469 194.933594 146.027344 191.839844 153.082031 C 188.746094 160.144531 188.914062 168.296875 192.300781 175.445312 C 197.496094 186.503906 209.734375 192.179688 222.074219 189.265625 C 235.429688 186.125 243.847656 173.402344 241.660156 159.671875 C 240.160156 149.984375 233.371094 141.96875 223.949219 138.734375 C 220.398438 137.53125 211.882812 137.414062 208.238281 138.515625 Z M 208.238281 138.515625 " fill-opacity="1" fill-rule="nonzero"/><g clip-path="url(#dfa223397a)"><path fill="#16433b" d="M 139.742188 298.359375 C 135.667969 298.359375 131.253906 297.664062 127.148438 296.308594 C 114.761719 292.320312 100.523438 285.714844 100.621094 269.964844 C 100.621094 255.457031 112.644531 232.910156 132.003906 211.152344 C 139.964844 202.238281 146.945312 197.621094 156.914062 194.6875 C 162.503906 193.070312 171.597656 192.761719 176.253906 194.871094 C 180.871094 197.007812 183.320312 200.242188 183.988281 205.066406 C 184.195312 206.546875 183.515625 208.015625 182.253906 208.820312 C 181.167969 209.511719 180.066406 210.710938 179.425781 211.894531 C 177.832031 215.667969 164.503906 263.792969 158.027344 289.164062 C 157.875 289.765625 157.578125 290.320312 157.164062 290.78125 C 154.300781 293.957031 150.566406 296.488281 147.410156 297.378906 C 145.148438 298.035156 142.523438 298.359375 139.742188 298.359375 Z M 167.101562 201.050781 C 164.429688 201.050781 161.433594 201.359375 159.0625 202.046875 C 150.511719 204.5625 144.722656 208.414062 137.726562 216.25 C 119.84375 236.351562 108.285156 257.449219 108.285156 269.988281 C 108.246094 276.320312 110.792969 282.992188 129.523438 289.023438 C 134.984375 290.824219 141.167969 291.207031 145.300781 290.011719 C 146.890625 289.5625 149.074219 288.085938 150.847656 286.304688 C 156.054688 266.015625 170.703125 212.125 172.582031 208.441406 C 173.410156 206.863281 174.546875 205.386719 175.847656 204.152344 C 175.355469 203.167969 174.515625 202.511719 173.0625 201.84375 C 171.949219 201.335938 169.675781 201.050781 167.101562 201.050781 Z M 167.101562 201.050781 " fill-opacity="1" fill-rule="nonzero"/></g><path fill="#16433b" d="M 221.535156 462.714844 C 220.558594 462.714844 219.5 462.527344 218.1875 462.171875 C 213.523438 460.917969 209.847656 457.292969 208.589844 452.714844 C 206.625 445.914062 206.839844 438.992188 209.945312 409.199219 C 211.640625 392.757812 212.558594 383.4375 212.800781 380.597656 C 210.65625 378.121094 201.03125 369.972656 189.65625 360.417969 L 188.878906 359.765625 C 174.878906 348.070312 161.648438 336.652344 159.378906 334.3125 C 156.355469 331.207031 154.007812 328.222656 152.199219 325.203125 C 152.175781 325.15625 152.148438 325.109375 152.121094 325.066406 C 147.742188 317.691406 146.382812 309.804688 147.722656 299.523438 C 147.914062 298.089844 148.882812 293.972656 150.601562 287.265625 C 155.574219 267.789062 170.671875 212.1875 172.578125 208.441406 C 173.867188 205.996094 175.882812 203.792969 178.128906 202.359375 C 178.773438 201.941406 179.457031 201.585938 180.148438 201.316406 C 180.1875 201.300781 180.226562 201.285156 180.265625 201.273438 C 181.167969 200.949219 182.855469 200.410156 184.046875 200.410156 L 184.046875 200.414062 C 188.570312 200.59375 219.925781 210.121094 222.0625 211.300781 C 224.039062 212.378906 236.386719 221.296875 244.199219 227.027344 L 261.589844 239.738281 L 281.835938 230.226562 L 297.640625 222.933594 C 297.828125 222.847656 298.019531 222.777344 298.21875 222.71875 L 300.519531 222.082031 C 305.15625 220.765625 310.679688 221.738281 313.628906 224.394531 C 317.359375 227.824219 317.984375 231.355469 317.855469 233.722656 C 317.589844 238.695312 313.917969 243.726562 306.632812 249.109375 C 306.628906 249.113281 306.625 249.117188 306.621094 249.121094 L 301.378906 252.953125 C 301.308594 253.007812 301.234375 253.058594 301.160156 253.105469 L 285.441406 263.007812 C 285.257812 263.125 285.058594 263.226562 284.855469 263.308594 C 284.027344 263.75 280.09375 266.054688 274.417969 269.546875 L 263.75 276.125 C 263.148438 276.5 262.449219 276.695312 261.738281 276.695312 L 257.585938 276.695312 C 250.613281 276.695312 248.054688 275.027344 230.152344 261.96875 C 225.457031 258.601562 221.992188 256.199219 219.644531 254.621094 C 218.242188 260.066406 215.800781 269.789062 213.007812 281.304688 L 205.972656 310.398438 L 225.605469 330.089844 C 226.484375 330.96875 247.003906 351.617188 248.570312 354.324219 C 248.601562 354.375 248.632812 354.429688 248.660156 354.484375 C 250.050781 357.171875 250.238281 359.660156 250.175781 366.820312 C 250.175781 374.9375 249.804688 377.308594 243.585938 409.054688 C 240.398438 425.382812 236.585938 444.175781 235.75 446.84375 C 234.023438 452.320312 230.566406 458.988281 226.035156 461.347656 C 224.320312 462.28125 223.023438 462.714844 221.535156 462.714844 Z M 158.855469 321.394531 C 160.34375 323.855469 162.3125 326.335938 164.875 328.972656 C 166.695312 330.847656 179.015625 341.535156 193.785156 353.878906 L 194.566406 354.53125 C 205.773438 363.945312 211.441406 368.800781 214.800781 371.863281 C 219.027344 375.710938 220.527344 377.492188 220.527344 379.820312 C 220.527344 381.078125 218.917969 396.921875 217.566406 409.988281 C 214.660156 437.902344 214.375 445.117188 215.96875 450.636719 C 216.515625 452.625 218.164062 454.226562 220.183594 454.773438 C 221.132812 455.03125 221.410156 455.054688 221.484375 455.050781 C 221.496094 455.042969 221.707031 454.976562 222.390625 454.601562 C 222.425781 454.582031 222.457031 454.566406 222.488281 454.550781 C 223.871094 453.84375 226.632812 450.269531 228.4375 444.542969 C 228.972656 442.839844 231.972656 428.546875 236.0625 407.582031 C 242.148438 376.523438 242.507812 374.238281 242.507812 366.785156 C 242.566406 360.558594 242.382812 359.160156 241.949219 358.207031 C 240.65625 356.5625 232.453125 347.84375 220.175781 335.496094 L 199.03125 314.289062 C 198.089844 313.34375 197.707031 311.976562 198.019531 310.679688 L 205.558594 279.5 C 213.179688 248.074219 213.785156 247.066406 213.984375 246.734375 C 214.144531 246.46875 214.335938 246.222656 214.554688 246.003906 C 216.78125 243.773438 219.457031 245.40625 220.597656 246.101562 C 221.425781 246.605469 222.585938 247.359375 224.035156 248.335938 C 226.777344 250.183594 230.546875 252.816406 234.644531 255.753906 C 252.253906 268.601562 253.3125 269.03125 257.585938 269.03125 L 260.652344 269.03125 L 270.398438 263.019531 C 277.074219 258.910156 279.96875 257.183594 281.457031 256.457031 L 296.960938 246.691406 L 302.085938 242.9375 C 308.972656 237.851562 310.125 234.722656 310.203125 233.3125 C 310.238281 232.632812 310.097656 231.558594 308.472656 230.0625 C 307.816406 229.472656 305.050781 228.765625 302.589844 229.460938 L 300.570312 230.023438 L 285.070312 237.175781 L 262.796875 247.640625 C 261.53125 248.238281 260.035156 248.097656 258.902344 247.269531 L 239.671875 233.210938 C 228.703125 225.167969 219.714844 218.800781 218.394531 218.035156 C 215.472656 216.683594 188.195312 208.789062 184.128906 208.101562 C 183.859375 208.164062 183.40625 208.292969 182.910156 208.464844 C 182.707031 208.550781 182.496094 208.664062 182.277344 208.804688 C 181.171875 209.511719 180.066406 210.710938 179.425781 211.894531 C 177.832031 215.667969 164.503906 263.792969 158.027344 289.164062 C 155.667969 298.375 155.359375 300.25 155.320312 300.53125 C 154.199219 309.144531 155.234375 315.347656 158.777344 321.257812 C 158.804688 321.304688 158.832031 321.347656 158.855469 321.394531 Z M 283.40625 263.597656 C 283.40625 263.597656 283.402344 263.597656 283.398438 263.597656 C 283.402344 263.597656 283.40625 263.597656 283.40625 263.597656 Z M 283.414062 263.597656 C 283.414062 263.597656 283.410156 263.597656 283.410156 263.597656 C 283.410156 263.597656 283.414062 263.597656 283.414062 263.597656 Z M 283.421875 263.597656 C 283.417969 263.597656 283.417969 263.597656 283.417969 263.597656 C 283.417969 263.597656 283.417969 263.597656 283.421875 263.597656 Z M 304.355469 246.027344 L 304.363281 246.027344 Z M 184.207031 208.070312 C 184.152344 208.074219 184.097656 208.074219 184.046875 208.074219 C 184.09375 208.074219 184.144531 208.074219 184.207031 208.070312 Z M 184.28125 208.066406 C 184.285156 208.066406 184.289062 208.066406 184.292969 208.066406 C 184.289062 208.066406 184.285156 208.066406 184.28125 208.066406 Z M 184.28125 208.066406 " fill-opacity="1" fill-rule="nonzero"/><path fill="#16433b" d="M 292.148438 464.804688 C 291.566406 464.804688 290.988281 464.769531 290.417969 464.71875 C 290.398438 464.71875 290.375 464.714844 290.351562 464.714844 C 285.109375 464.171875 282.050781 461.726562 280.730469 457.015625 C 280.726562 456.992188 280.71875 456.972656 280.714844 456.949219 C 280.503906 456.148438 279.949219 454.023438 279.949219 356.691406 C 279.949219 305.039062 279.765625 263.65625 279.601562 260.277344 C 279.402344 258.808594 280.074219 257.332031 281.355469 256.523438 L 297.074219 246.617188 C 298.253906 245.875 299.746094 245.832031 300.96875 246.503906 C 302.191406 247.179688 302.949219 248.464844 302.949219 249.863281 L 302.949219 367.5625 C 302.953125 412.761719 302.957031 435.449219 302.574219 447.03125 C 302.195312 458.644531 301.507812 461.042969 298 463.0625 C 297.890625 463.125 297.773438 463.1875 297.652344 463.269531 C 297.644531 463.273438 297.636719 463.277344 297.628906 463.285156 C 295.78125 464.484375 293.929688 464.804688 292.148438 464.804688 Z M 295.539062 460.070312 L 295.546875 460.070312 Z M 291.109375 457.085938 C 292.851562 457.230469 293.171875 457.039062 293.441406 456.863281 C 293.679688 456.707031 293.910156 456.570312 294.125 456.445312 C 295.292969 452.820312 295.292969 432.0625 295.285156 367.5625 L 295.285156 256.804688 L 287.304688 261.832031 C 287.328125 263.132812 287.351562 265.003906 287.371094 267.382812 C 287.417969 272.273438 287.460938 279.480469 287.496094 288.230469 C 287.574219 307.121094 287.617188 331.433594 287.617188 356.691406 C 287.617188 424.542969 287.90625 451.96875 288.183594 455.199219 C 288.523438 456.375 288.796875 456.84375 291.109375 457.085938 Z M 283.390625 263.597656 C 283.394531 263.597656 283.398438 263.597656 283.398438 263.597656 C 283.398438 263.597656 283.394531 263.597656 283.390625 263.597656 Z M 280.707031 262.496094 C 281.367188 263.148438 282.289062 263.59375 283.390625 263.597656 C 282.359375 263.59375 281.40625 263.183594 280.707031 262.496094 Z M 279.625 260.421875 C 279.707031 260.96875 279.9375 261.519531 280.285156 262.003906 C 280.035156 261.652344 279.839844 261.257812 279.71875 260.828125 C 279.679688 260.695312 279.648438 260.558594 279.625 260.421875 Z M 279.625 260.421875 " fill-opacity="1" fill-rule="nonzero"/><path fill="#16433b" d="M 283.464844 237.527344 C 282.722656 237.527344 281.988281 237.316406 281.351562 236.894531 C 280.242188 236.160156 279.59375 234.910156 279.632812 233.582031 L 279.953125 222.847656 C 280.300781 211.109375 281.152344 209.65625 281.558594 208.957031 C 283.402344 205.695312 286.507812 203.570312 290.054688 203.171875 C 293.789062 202.75 297.550781 204.273438 300.351562 207.347656 C 302.445312 209.6875 302.683594 212.050781 302.882812 218.757812 L 303.078125 226.316406 C 303.117188 227.84375 302.242188 229.25 300.851562 229.894531 L 285.070312 237.175781 C 284.558594 237.414062 284.007812 237.527344 283.464844 237.527344 Z M 288.371094 212.496094 C 288.152344 213.578125 287.792969 217.101562 287.613281 223.078125 L 287.476562 227.621094 L 295.347656 223.988281 L 295.222656 218.972656 C 295.175781 217.417969 295.050781 213.253906 294.707031 212.527344 C 294.703125 212.527344 294.683594 212.503906 294.664062 212.484375 C 293.558594 211.273438 292.1875 210.644531 290.910156 210.789062 C 289.894531 210.902344 289.023438 211.492188 288.371094 212.496094 Z M 288.230469 212.730469 C 288.222656 212.746094 288.210938 212.757812 288.207031 212.773438 C 288.214844 212.757812 288.222656 212.746094 288.230469 212.730469 Z M 288.421875 212.289062 Z M 288.421875 212.289062 " fill-opacity="1" fill-rule="nonzero"/><path fill="#16433b" d="M 118.632812 458.851562 C 117.355469 458.851562 116.117188 458.691406 114.917969 458.363281 C 109.324219 456.816406 107.246094 453.980469 107.246094 447.886719 C 107.246094 442.21875 109.550781 435.8125 116.734375 421.515625 C 125.511719 403.96875 136.703125 380.976562 141.167969 371.3125 L 145.242188 362.636719 L 148.367188 342.277344 C 149.773438 333.269531 151.097656 325.488281 151.742188 322.445312 C 152.066406 320.902344 153.304688 319.714844 154.863281 319.457031 C 156.417969 319.199219 157.972656 319.917969 158.78125 321.269531 C 160.277344 323.773438 162.269531 326.292969 164.875 328.972656 C 166.695312 330.847656 179.015625 341.535156 193.785156 353.878906 L 194.566406 354.53125 C 195.753906 355.515625 196.234375 357.113281 195.792969 358.589844 C 194.335938 363.414062 189.761719 376.46875 188.570312 378.738281 C 188.554688 378.769531 188.535156 378.804688 188.519531 378.835938 C 183.765625 387.296875 149.136719 436.558594 142.773438 443.910156 C 134.273438 453.679688 125.855469 458.851562 118.632812 458.851562 Z M 115.160156 450.300781 C 115.167969 450.300781 115.496094 450.570312 116.949219 450.972656 C 120.664062 451.988281 127.886719 449.347656 136.984375 438.886719 C 142.964844 431.980469 177.183594 383.304688 181.800781 375.144531 C 182.507812 373.726562 185.804688 364.585938 187.695312 358.777344 C 174.140625 347.433594 161.585938 336.585938 159.378906 334.3125 C 158.796875 333.714844 158.242188 333.121094 157.707031 332.53125 C 157.167969 335.734375 156.558594 339.496094 155.941406 343.449219 L 152.738281 364.347656 C 152.679688 364.707031 152.574219 365.0625 152.417969 365.394531 L 148.117188 374.550781 C 143.636719 384.25 132.398438 407.34375 123.585938 424.953125 C 117.179688 437.699219 114.910156 443.703125 114.910156 447.886719 C 114.910156 449.808594 115.132812 450.253906 115.160156 450.300781 Z M 115.160156 450.300781 " fill-opacity="1" fill-rule="nonzero"/><g fill="#ffffff" fill-opacity="1"><g transform="translate(310.62426, 499.707763)"><g><path d="M 1.1875 -0.828125 C 1.1875 -1.171875 1.265625 -1.429688 1.421875 -1.609375 C 1.578125 -1.796875 1.804688 -1.890625 2.109375 -1.890625 C 2.410156 -1.890625 2.644531 -1.796875 2.8125 -1.609375 C 2.976562 -1.429688 3.0625 -1.171875 3.0625 -0.828125 C 3.0625 -0.484375 2.972656 -0.222656 2.796875 -0.046875 C 2.628906 0.128906 2.398438 0.21875 2.109375 0.21875 C 1.835938 0.21875 1.613281 0.140625 1.4375 -0.015625 C 1.269531 -0.179688 1.1875 -0.453125 1.1875 -0.828125 Z M 1.1875 -0.828125 "/></g></g></g></svg>