<?xml version="1.0" encoding="UTF-8"?>
<!DOCTYPE svg PUBLIC "-//W3C//DTD SVG 1.1//EN" "http://www.w3.org/Graphics/SVG/1.1/DTD/svg11.dtd">
<!-- Creator: CorelDRAW -->
<svg xmlns="http://www.w3.org/2000/svg" xml:space="preserve" width="2.66666in" height="2.66666in" version="1.1" style="shape-rendering:geometricPrecision; text-rendering:geometricPrecision; image-rendering:optimizeQuality; fill-rule:evenodd; clip-rule:evenodd"
viewBox="0 0 2667 2667"
 xmlns:xlink="http://www.w3.org/1999/xlink">
 <defs>
  <style type="text/css">
   <![CDATA[
    .fil0 {fill:#378B4E}
    .fil1 {fill:white}
   ]]>
  </style>
 </defs>
 <g id="Layer_x0020_1">
  <metadata id="CorelCorpID_0Corel-Layer"/>
  <circle class="fil0" cx="1333" cy="1333" r="1333"/>
  <path class="fil1" d="M844 1824c-48,0 -88,-39 -88,-88 0,-49 40,-88 88,-88 49,0 89,39 89,88 0,49 -40,88 -89,88zm1243 89l-1507 0c-34,0 -34,-51 0,-51l139 0c-26,-27 -44,-62 -50,-100 -105,-4 -189,-90 -189,-196l0 -513c0,-107 86,-194 193,-196 11,-59 63,-104 125,-104l856 0c118,0 161,156 102,156l-49 0 0 105 80 0c20,0 37,10 185,232 7,10 13,18 17,24l107 22c16,3 29,29 29,39l0 114c35,9 61,41 61,79l0 61c0,34 -26,60 -61,60l0 56c0,34 -26,61 -58,61l-131 0c-5,39 -23,73 -50,100l201 0c34,0 34,51 0,51zm-1244 -51c71,0 127,-56 127,-126 0,-70 -56,-126 -126,-126 -69,0 -125,57 -125,126 0,69 55,125 124,126zm127 0l666 0c-27,-27 -45,-61 -51,-100l-565 0c-6,39 -24,73 -50,100zm790 0c71,0 126,-56 127,-127 -1,-69 -57,-125 -126,-125 -69,0 -126,57 -126,126 0,69 56,125 125,126zm-802 -495l-263 0c-43,0 -77,-34 -77,-77l0 -191c0,-42 34,-77 77,-77l263 0c42,0 76,35 76,77l0 191c0,43 -34,77 -76,77zm-263 -293c-14,0 -26,11 -26,25l0 191c0,14 12,25 26,25l263 0c14,0 25,-11 25,-25l0 -191c0,-14 -11,-25 -25,-25l-263 0 0 0zm741 636l0 -500c0,-14 -11,-25 -25,-25l-245 0c-14,0 -25,11 -25,25l0 500 295 0zm-347 0l0 -500c0,-43 35,-77 77,-77l245 0c43,0 77,34 77,77l0 500 58 0 -1 -672c-8,-73 -69,-129 -143,-129l-726 0c-80,0 -144,64 -144,144l0 513c0,77 61,140 137,144 13,-86 86,-151 175,-151 89,0 163,65 176,151l69 0zm445 -801c30,27 51,64 59,105l62 0 0 -105 -121 0zm63 157l0 202 328 0c-34,-52 -120,-178 -145,-202l-183 0zm0 254l0 347c70,-165 314,-133 339,43l131 0c4,0 6,-5 6,-9l0 -56c-17,0 -50,5 -50,-26l0 -151c0,-30 33,-25 50,-25l0 -103 -102 -20 -374 0zm502 273c44,0 36,12 36,-69 0,-35 -39,-30 -61,-30l0 99 25 0zm-338 231c-49,0 -88,-39 -88,-88 0,-49 39,-88 88,-88 49,0 88,39 88,88 0,49 -39,88 -88,88zm0 -124c-48,0 -48,72 0,72 48,0 48,-72 0,-72zm-385 -174c-14,0 -26,-11 -26,-26l0 -106c0,-34 52,-34 52,0l0 106c0,15 -12,26 -26,26zm-650 -669l1000 0c-10,-30 -39,-52 -72,-52l-856 0c-33,0 -62,22 -72,52zm1003 551l-77 0c-34,0 -34,-51 0,-51l77 0c35,0 35,51 0,51zm-885 292c-48,0 -47,72 0,72 48,0 48,-72 0,-72z"/>
 </g>
</svg>
