<svg xmlns="http://www.w3.org/2000/svg" xmlns:xlink="http://www.w3.org/1999/xlink" width="250" zoomAndPan="magnify" viewBox="0 0 187.5 187.499992" height="250" preserveAspectRatio="xMidYMid meet" version="1.0"><defs><clipPath id="3712202652"><path d="M 64 155 L 123 155 L 123 175.035156 L 64 175.035156 Z M 64 155 " clip-rule="nonzero"/></clipPath><clipPath id="0ce722fdcd"><path d="M 82 11.972656 L 105 11.972656 L 105 34 L 82 34 Z M 82 11.972656 " clip-rule="nonzero"/></clipPath></defs><path fill="#16433b" d="M 98.273438 160.375 L 88.722656 160.375 C 87.445312 160.375 86.492188 159.417969 86.492188 158.144531 L 86.492188 30.125 C 86.492188 29.488281 86.808594 28.53125 87.445312 28.210938 C 88.082031 27.894531 89.039062 27.894531 89.675781 28.210938 C 90.632812 28.53125 91.90625 29.167969 93.496094 29.167969 C 95.089844 29.167969 96.363281 28.53125 97.320312 28.210938 C 97.957031 27.894531 98.910156 27.894531 99.546875 28.210938 C 100.183594 28.53125 100.503906 29.488281 100.503906 30.125 L 100.503906 158.144531 C 100.503906 159.417969 99.546875 160.375 98.273438 160.375 Z M 90.949219 155.917969 L 96.046875 155.917969 L 96.046875 33.308594 C 95.410156 33.625 94.453125 33.625 93.496094 33.625 C 92.542969 33.625 91.585938 33.625 90.949219 33.308594 Z M 90.949219 155.917969 " fill-opacity="1" fill-rule="evenodd"/><g clip-path="url(#3712202652)"><path fill="#16433b" d="M 120.566406 175.023438 L 66.429688 175.023438 C 65.15625 175.023438 64.199219 174.070312 64.199219 172.796875 L 64.199219 165.46875 C 64.199219 160.058594 68.339844 155.917969 73.753906 155.917969 L 113.242188 155.917969 C 118.65625 155.917969 122.796875 160.058594 122.796875 165.46875 L 122.796875 172.796875 C 122.796875 174.070312 121.839844 175.023438 120.566406 175.023438 Z M 68.65625 170.566406 L 118.339844 170.566406 L 118.339844 165.46875 C 118.339844 162.605469 116.109375 160.375 113.242188 160.375 L 73.753906 160.375 C 70.886719 160.375 68.65625 162.605469 68.65625 165.46875 Z M 68.65625 170.566406 " fill-opacity="1" fill-rule="evenodd"/></g><g clip-path="url(#0ce722fdcd)"><path fill="#16433b" d="M 93.496094 33.625 C 87.445312 33.625 82.671875 28.851562 82.671875 22.800781 C 82.671875 16.746094 87.445312 11.972656 93.496094 11.972656 C 99.546875 11.972656 104.324219 16.746094 104.324219 22.800781 C 104.324219 28.851562 99.546875 33.625 93.496094 33.625 Z M 93.496094 16.429688 C 89.996094 16.429688 87.128906 19.296875 87.128906 22.800781 C 87.128906 26.300781 89.996094 29.167969 93.496094 29.167969 C 97 29.167969 99.867188 26.300781 99.867188 22.800781 C 99.867188 19.296875 97 16.429688 93.496094 16.429688 Z M 93.496094 16.429688 " fill-opacity="1" fill-rule="evenodd"/></g><path fill="#16433b" d="M 147.636719 76.9375 L 98.273438 76.9375 C 97 76.9375 96.046875 75.980469 96.046875 74.707031 L 96.046875 44.136719 C 96.046875 42.863281 97 41.90625 98.273438 41.90625 L 147.636719 41.90625 C 148.273438 41.90625 148.910156 42.226562 149.230469 42.542969 L 163.878906 58.785156 C 164.832031 59.742188 164.832031 61.015625 163.878906 61.96875 L 149.230469 76.300781 C 148.910156 76.621094 148.273438 76.9375 147.636719 76.9375 Z M 100.503906 72.480469 L 146.679688 72.480469 L 159.101562 60.378906 L 146.679688 46.363281 L 100.503906 46.363281 Z M 100.503906 72.480469 " fill-opacity="1" fill-rule="evenodd"/><path fill="#16433b" d="M 122.796875 61.652344 L 98.273438 61.652344 C 97 61.652344 96.046875 60.695312 96.046875 59.421875 C 96.046875 58.148438 97 57.191406 98.273438 57.191406 L 122.796875 57.191406 C 124.070312 57.191406 125.027344 58.148438 125.027344 59.421875 C 125.027344 60.695312 124.070312 61.652344 122.796875 61.652344 Z M 122.796875 61.652344 " fill-opacity="1" fill-rule="evenodd"/><path fill="#16433b" d="M 88.722656 114.835938 L 39.359375 114.835938 C 38.722656 114.835938 38.085938 114.515625 37.765625 114.199219 L 23.117188 99.867188 C 22.160156 98.910156 22.160156 97.636719 23.117188 96.683594 L 37.765625 80.441406 C 38.085938 80.121094 38.722656 79.804688 39.359375 79.804688 L 88.722656 79.804688 C 89.996094 79.804688 90.949219 80.757812 90.949219 82.03125 L 90.949219 112.605469 C 90.949219 113.878906 89.996094 114.835938 88.722656 114.835938 Z M 40.3125 110.375 L 86.492188 110.375 L 86.492188 84.261719 L 40.3125 84.261719 L 27.894531 98.273438 Z M 40.3125 110.375 " fill-opacity="1" fill-rule="evenodd"/><path fill="#16433b" d="M 88.722656 99.546875 L 64.199219 99.546875 C 62.925781 99.546875 61.96875 98.59375 61.96875 97.320312 C 61.96875 96.046875 62.925781 95.089844 64.199219 95.089844 L 88.722656 95.089844 C 89.996094 95.089844 90.949219 96.046875 90.949219 97.320312 C 90.949219 98.59375 89.996094 99.546875 88.722656 99.546875 Z M 88.722656 99.546875 " fill-opacity="1" fill-rule="evenodd"/></svg>