<svg xmlns="http://www.w3.org/2000/svg" xmlns:xlink="http://www.w3.org/1999/xlink" width="559" zoomAndPan="magnify" viewBox="0 0 419.25 595.499987" height="794" preserveAspectRatio="xMidYMid meet" version="1.0"><defs><clipPath id="b79be6927c"><path d="M 134 457 L 285 457 L 285 506.5 L 134 506.5 Z M 134 457 " clip-rule="nonzero"/></clipPath></defs><path fill="#16433b" d="M 221.652344 469.144531 L 197.117188 469.144531 C 193.84375 469.144531 191.390625 466.691406 191.390625 463.421875 L 191.390625 134.621094 C 191.390625 132.984375 192.210938 130.53125 193.84375 129.710938 C 195.480469 128.894531 197.933594 128.894531 199.570312 129.710938 C 202.023438 130.53125 205.296875 132.167969 209.386719 132.167969 C 213.476562 132.167969 216.746094 130.53125 219.199219 129.710938 C 220.835938 128.894531 223.289062 128.894531 224.925781 129.710938 C 226.5625 130.53125 227.378906 132.984375 227.378906 134.621094 L 227.378906 463.421875 C 227.378906 466.691406 224.925781 469.144531 221.652344 469.144531 Z M 202.84375 457.695312 L 215.929688 457.695312 L 215.929688 142.800781 C 214.292969 143.617188 211.839844 143.617188 209.386719 143.617188 C 206.929688 143.617188 204.476562 143.617188 202.84375 142.800781 Z M 202.84375 457.695312 " fill-opacity="1" fill-rule="evenodd"/><g clip-path="url(#b79be6927c)"><path fill="#16433b" d="M 278.90625 506.769531 L 139.863281 506.769531 C 136.589844 506.769531 134.136719 504.316406 134.136719 501.042969 L 134.136719 482.230469 C 134.136719 468.328125 144.769531 457.695312 158.675781 457.695312 L 260.09375 457.695312 C 274 457.695312 284.632812 468.328125 284.632812 482.230469 L 284.632812 501.042969 C 284.632812 504.316406 282.179688 506.769531 278.90625 506.769531 Z M 145.589844 495.320312 L 273.183594 495.320312 L 273.183594 482.230469 C 273.183594 474.871094 267.457031 469.144531 260.09375 469.144531 L 158.675781 469.144531 C 151.3125 469.144531 145.589844 474.871094 145.589844 482.230469 Z M 145.589844 495.320312 " fill-opacity="1" fill-rule="evenodd"/></g><path fill="#16433b" d="M 209.386719 143.617188 C 193.84375 143.617188 181.578125 131.347656 181.578125 115.808594 C 181.578125 100.269531 193.84375 88 209.386719 88 C 224.925781 88 237.195312 100.269531 237.195312 115.808594 C 237.195312 131.347656 224.925781 143.617188 209.386719 143.617188 Z M 209.386719 99.449219 C 200.386719 99.449219 193.027344 106.8125 193.027344 115.808594 C 193.027344 124.804688 200.386719 132.167969 209.386719 132.167969 C 218.382812 132.167969 225.742188 124.804688 225.742188 115.808594 C 225.742188 106.8125 218.382812 99.449219 209.386719 99.449219 Z M 209.386719 99.449219 " fill-opacity="1" fill-rule="evenodd"/><path fill="#16433b" d="M 348.429688 254.851562 L 221.652344 254.851562 C 218.382812 254.851562 215.929688 252.398438 215.929688 249.128906 L 215.929688 170.609375 C 215.929688 167.335938 218.382812 164.882812 221.652344 164.882812 L 348.429688 164.882812 C 350.066406 164.882812 351.703125 165.699219 352.519531 166.519531 L 390.144531 208.230469 C 392.597656 210.6875 392.597656 213.957031 390.144531 216.410156 L 352.519531 253.21875 C 351.703125 254.035156 350.066406 254.851562 348.429688 254.851562 Z M 227.378906 243.402344 L 345.976562 243.402344 L 377.875 212.320312 L 345.976562 176.332031 L 227.378906 176.332031 Z M 227.378906 243.402344 " fill-opacity="1" fill-rule="evenodd"/><path fill="#16433b" d="M 284.632812 215.59375 L 221.652344 215.59375 C 218.382812 215.59375 215.929688 213.140625 215.929688 209.867188 C 215.929688 206.597656 218.382812 204.144531 221.652344 204.144531 L 284.632812 204.144531 C 287.90625 204.144531 290.359375 206.597656 290.359375 209.867188 C 290.359375 213.140625 287.90625 215.59375 284.632812 215.59375 Z M 284.632812 215.59375 " fill-opacity="1" fill-rule="evenodd"/><path fill="#16433b" d="M 197.117188 352.183594 L 70.339844 352.183594 C 68.703125 352.183594 67.070312 351.367188 66.25 350.546875 L 28.625 313.742188 C 26.171875 311.289062 26.171875 308.015625 28.625 305.5625 L 66.25 263.851562 C 67.070312 263.03125 68.703125 262.214844 70.339844 262.214844 L 197.117188 262.214844 C 200.386719 262.214844 202.84375 264.667969 202.84375 267.941406 L 202.84375 346.460938 C 202.84375 349.730469 200.386719 352.183594 197.117188 352.183594 Z M 72.792969 340.734375 L 191.390625 340.734375 L 191.390625 273.664062 L 72.792969 273.664062 L 40.894531 309.652344 Z M 72.792969 340.734375 " fill-opacity="1" fill-rule="evenodd"/><path fill="#16433b" d="M 197.117188 312.925781 L 134.136719 312.925781 C 130.867188 312.925781 128.410156 310.472656 128.410156 307.199219 C 128.410156 303.929688 130.867188 301.472656 134.136719 301.472656 L 197.117188 301.472656 C 200.386719 301.472656 202.84375 303.929688 202.84375 307.199219 C 202.84375 310.472656 200.386719 312.925781 197.117188 312.925781 Z M 197.117188 312.925781 " fill-opacity="1" fill-rule="evenodd"/></svg>