<svg xmlns="http://www.w3.org/2000/svg" xmlns:xlink="http://www.w3.org/1999/xlink" width="250" zoomAndPan="magnify" viewBox="0 0 187.5 187.499992" height="250" preserveAspectRatio="xMidYMid meet" version="1.0"><defs><clipPath id="31bb32ab41"><path d="M 24.652344 21.785156 L 162.285156 21.785156 L 162.285156 165.402344 L 24.652344 165.402344 Z M 24.652344 21.785156 " clip-rule="nonzero"/></clipPath></defs><g clip-path="url(#31bb32ab41)"><path fill="#16433b" d="M 93.511719 47.601562 C 71.367188 47.601562 53.351562 65.617188 53.351562 87.761719 C 53.34375 89.984375 53.519531 92.1875 53.882812 94.378906 C 54.246094 96.570312 54.785156 98.71875 55.507812 100.816406 C 56.230469 102.917969 57.121094 104.945312 58.183594 106.894531 C 59.242188 108.847656 60.457031 110.695312 61.828125 112.441406 L 69.328125 121.289062 C 70.652344 122.84375 71.667969 124.582031 72.375 126.5 C 73.078125 128.417969 73.429688 130.394531 73.429688 132.4375 L 73.429688 148.003906 C 73.429688 148.566406 73.488281 149.128906 73.597656 149.683594 C 73.707031 150.234375 73.871094 150.773438 74.085938 151.296875 C 74.304688 151.816406 74.566406 152.3125 74.882812 152.785156 C 75.195312 153.253906 75.550781 153.6875 75.953125 154.089844 C 76.351562 154.488281 76.785156 154.84375 77.257812 155.160156 C 77.726562 155.472656 78.222656 155.738281 78.742188 155.953125 C 79.265625 156.167969 79.804688 156.332031 80.359375 156.441406 C 80.914062 156.554688 81.472656 156.609375 82.039062 156.609375 L 82.398438 156.609375 C 82.558594 157.21875 82.765625 157.816406 83.019531 158.394531 C 83.277344 158.972656 83.578125 159.523438 83.925781 160.050781 C 84.273438 160.578125 84.660156 161.074219 85.089844 161.539062 C 85.519531 162.003906 85.984375 162.429688 86.480469 162.816406 C 86.980469 163.203125 87.507812 163.546875 88.066406 163.847656 C 88.621094 164.148438 89.199219 164.398438 89.796875 164.605469 C 90.394531 164.808594 91.003906 164.960938 91.628906 165.066406 C 92.253906 165.167969 92.878906 165.222656 93.511719 165.222656 C 94.144531 165.222656 94.769531 165.167969 95.394531 165.066406 C 96.019531 164.960938 96.628906 164.808594 97.226562 164.605469 C 97.824219 164.398438 98.402344 164.148438 98.957031 163.847656 C 99.515625 163.546875 100.042969 163.203125 100.542969 162.816406 C 101.039062 162.429688 101.503906 162.003906 101.933594 161.539062 C 102.363281 161.074219 102.75 160.578125 103.097656 160.050781 C 103.445312 159.523438 103.746094 158.972656 104.003906 158.394531 C 104.257812 157.816406 104.464844 157.21875 104.625 156.609375 L 104.984375 156.609375 C 105.550781 156.609375 106.109375 156.554688 106.664062 156.441406 C 107.21875 156.332031 107.757812 156.167969 108.28125 155.953125 C 108.800781 155.738281 109.296875 155.472656 109.765625 155.160156 C 110.238281 154.84375 110.671875 154.488281 111.070312 154.089844 C 111.472656 153.6875 111.828125 153.253906 112.140625 152.785156 C 112.457031 152.3125 112.71875 151.816406 112.9375 151.296875 C 113.152344 150.773438 113.316406 150.234375 113.425781 149.683594 C 113.535156 149.128906 113.59375 148.566406 113.59375 148.003906 L 113.59375 132.4375 C 113.59375 130.394531 113.945312 128.414062 114.652344 126.496094 C 115.355469 124.578125 116.371094 122.84375 117.695312 121.285156 L 124.914062 112.796875 L 125.210938 112.421875 C 126.582031 110.675781 127.792969 108.828125 128.851562 106.878906 C 129.914062 104.929688 130.800781 102.902344 131.523438 100.804688 C 132.242188 98.707031 132.78125 96.5625 133.144531 94.375 C 133.503906 92.183594 133.679688 89.980469 133.671875 87.761719 C 133.671875 65.617188 115.65625 47.601562 93.511719 47.601562 Z M 93.511719 159.476562 C 92.488281 159.476562 91.535156 159.21875 90.652344 158.707031 C 89.765625 158.191406 89.066406 157.492188 88.558594 156.609375 L 98.464844 156.609375 C 97.957031 157.492188 97.257812 158.191406 96.371094 158.707031 C 95.488281 159.21875 94.535156 159.476562 93.511719 159.476562 Z M 104.984375 150.871094 L 82.039062 150.871094 C 81.65625 150.871094 81.292969 150.796875 80.941406 150.652344 C 80.589844 150.507812 80.277344 150.300781 80.007812 150.03125 C 79.738281 149.761719 79.53125 149.453125 79.386719 149.101562 C 79.242188 148.75 79.167969 148.382812 79.167969 148.003906 L 79.167969 136.527344 L 107.855469 136.527344 L 107.855469 148.003906 C 107.855469 148.382812 107.78125 148.75 107.636719 149.101562 C 107.492188 149.453125 107.285156 149.761719 107.015625 150.03125 C 106.746094 150.300781 106.433594 150.507812 106.082031 150.652344 C 105.734375 150.796875 105.367188 150.871094 104.984375 150.871094 Z M 120.699219 108.886719 L 113.332031 117.570312 C 111.746094 119.429688 110.492188 121.488281 109.566406 123.75 C 108.640625 126.007812 108.089844 128.355469 107.914062 130.792969 L 79.109375 130.792969 C 78.933594 128.355469 78.382812 126.007812 77.457031 123.75 C 76.53125 121.488281 75.277344 119.429688 73.691406 117.570312 L 66.59375 109.226562 L 66.332031 108.894531 C 63.972656 105.882812 62.171875 102.5625 60.929688 98.941406 C 59.6875 95.316406 59.074219 91.589844 59.089844 87.761719 C 59.089844 86.636719 59.144531 85.511719 59.253906 84.386719 C 59.363281 83.265625 59.53125 82.152344 59.75 81.046875 C 59.96875 79.941406 60.242188 78.847656 60.570312 77.769531 C 60.898438 76.691406 61.277344 75.628906 61.707031 74.589844 C 62.140625 73.546875 62.621094 72.53125 63.152344 71.535156 C 63.683594 70.539062 64.261719 69.574219 64.890625 68.636719 C 65.515625 67.699219 66.1875 66.796875 66.902344 65.925781 C 67.617188 65.054688 68.375 64.21875 69.171875 63.421875 C 69.96875 62.625 70.800781 61.867188 71.675781 61.152344 C 72.546875 60.4375 73.449219 59.765625 74.386719 59.140625 C 75.324219 58.515625 76.289062 57.933594 77.285156 57.402344 C 78.277344 56.871094 79.296875 56.390625 80.339844 55.960938 C 81.378906 55.527344 82.441406 55.148438 83.519531 54.820312 C 84.597656 54.492188 85.691406 54.21875 86.796875 54 C 87.902344 53.78125 89.015625 53.617188 90.136719 53.503906 C 91.257812 53.394531 92.382812 53.339844 93.511719 53.339844 C 94.640625 53.339844 95.765625 53.394531 96.886719 53.503906 C 98.007812 53.617188 99.121094 53.78125 100.226562 54 C 101.332031 54.21875 102.425781 54.492188 103.503906 54.820312 C 104.582031 55.148438 105.644531 55.527344 106.683594 55.960938 C 107.726562 56.390625 108.746094 56.871094 109.738281 57.402344 C 110.734375 57.933594 111.699219 58.515625 112.636719 59.140625 C 113.574219 59.765625 114.476562 60.4375 115.351562 61.152344 C 116.222656 61.867188 117.054688 62.625 117.851562 63.421875 C 118.648438 64.21875 119.40625 65.054688 120.121094 65.925781 C 120.835938 66.796875 121.507812 67.699219 122.132812 68.636719 C 122.761719 69.574219 123.339844 70.539062 123.871094 71.535156 C 124.402344 72.53125 124.882812 73.546875 125.316406 74.589844 C 125.746094 75.628906 126.125 76.691406 126.453125 77.769531 C 126.78125 78.847656 127.054688 79.941406 127.273438 81.046875 C 127.492188 82.152344 127.660156 83.265625 127.769531 84.386719 C 127.878906 85.511719 127.933594 86.636719 127.933594 87.761719 C 127.949219 91.589844 127.339844 95.3125 126.097656 98.933594 C 124.859375 102.554688 123.058594 105.871094 120.699219 108.886719 Z M 39.007812 93.5 L 27.535156 93.5 C 27.152344 93.5 26.789062 93.425781 26.4375 93.28125 C 26.085938 93.136719 25.773438 92.929688 25.503906 92.660156 C 25.238281 92.390625 25.03125 92.078125 24.882812 91.730469 C 24.738281 91.378906 24.664062 91.011719 24.664062 90.628906 C 24.664062 90.25 24.738281 89.882812 24.882812 89.53125 C 25.03125 89.179688 25.238281 88.871094 25.503906 88.601562 C 25.773438 88.332031 26.085938 88.125 26.4375 87.980469 C 26.789062 87.835938 27.152344 87.761719 27.535156 87.761719 L 39.007812 87.761719 C 39.390625 87.761719 39.753906 87.835938 40.105469 87.980469 C 40.457031 88.125 40.769531 88.332031 41.035156 88.601562 C 41.304688 88.871094 41.511719 89.179688 41.660156 89.53125 C 41.804688 89.882812 41.878906 90.25 41.878906 90.628906 C 41.878906 91.011719 41.804688 91.378906 41.660156 91.730469 C 41.511719 92.078125 41.304688 92.390625 41.035156 92.660156 C 40.769531 92.929688 40.457031 93.136719 40.105469 93.28125 C 39.753906 93.425781 39.390625 93.5 39.007812 93.5 Z M 159.488281 93.5 L 148.015625 93.5 C 147.636719 93.5 147.269531 93.425781 146.917969 93.28125 C 146.566406 93.136719 146.253906 92.929688 145.988281 92.660156 C 145.71875 92.390625 145.511719 92.078125 145.363281 91.730469 C 145.21875 91.378906 145.148438 91.011719 145.148438 90.628906 C 145.148438 90.25 145.21875 89.882812 145.363281 89.53125 C 145.511719 89.179688 145.71875 88.871094 145.988281 88.601562 C 146.253906 88.332031 146.566406 88.125 146.917969 87.980469 C 147.269531 87.835938 147.636719 87.761719 148.015625 87.761719 L 159.488281 87.761719 C 159.871094 87.761719 160.234375 87.835938 160.585938 87.980469 C 160.9375 88.125 161.25 88.332031 161.519531 88.601562 C 161.785156 88.871094 161.996094 89.179688 162.140625 89.53125 C 162.285156 89.882812 162.359375 90.25 162.359375 90.628906 C 162.359375 91.011719 162.285156 91.378906 162.140625 91.730469 C 161.996094 92.078125 161.785156 92.390625 161.519531 92.660156 C 161.25 92.929688 160.9375 93.136719 160.585938 93.28125 C 160.234375 93.425781 159.871094 93.5 159.488281 93.5 Z M 93.511719 38.996094 C 93.132812 38.996094 92.765625 38.921875 92.414062 38.777344 C 92.0625 38.632812 91.753906 38.425781 91.484375 38.15625 C 91.214844 37.886719 91.007812 37.578125 90.863281 37.226562 C 90.714844 36.875 90.644531 36.507812 90.644531 36.128906 L 90.644531 24.652344 C 90.644531 24.273438 90.714844 23.90625 90.863281 23.554688 C 91.007812 23.203125 91.214844 22.894531 91.484375 22.625 C 91.753906 22.355469 92.0625 22.148438 92.414062 22.003906 C 92.765625 21.855469 93.132812 21.785156 93.511719 21.785156 C 93.890625 21.785156 94.257812 21.855469 94.609375 22.003906 C 94.960938 22.148438 95.269531 22.355469 95.539062 22.625 C 95.808594 22.894531 96.015625 23.203125 96.160156 23.554688 C 96.308594 23.90625 96.378906 24.273438 96.378906 24.652344 L 96.378906 36.128906 C 96.378906 36.507812 96.308594 36.875 96.160156 37.226562 C 96.015625 37.578125 95.808594 37.886719 95.539062 38.15625 C 95.269531 38.425781 94.960938 38.632812 94.609375 38.777344 C 94.257812 38.921875 93.890625 38.996094 93.511719 38.996094 Z M 36.375 126.488281 C 36.058594 126.488281 35.753906 126.4375 35.457031 126.335938 C 35.15625 126.230469 34.882812 126.085938 34.632812 125.894531 C 34.386719 125.703125 34.171875 125.476562 34 125.214844 C 33.824219 124.953125 33.695312 124.667969 33.613281 124.363281 C 33.53125 124.058594 33.5 123.75 33.519531 123.4375 C 33.539062 123.125 33.609375 122.820312 33.730469 122.53125 C 33.851562 122.238281 34.011719 121.972656 34.21875 121.738281 C 34.425781 121.5 34.664062 121.300781 34.9375 121.140625 L 44.875 115.40625 C 45.207031 115.183594 45.566406 115.039062 45.957031 114.96875 C 46.34375 114.898438 46.734375 114.90625 47.121094 114.996094 C 47.503906 115.085938 47.859375 115.25 48.175781 115.484375 C 48.496094 115.71875 48.753906 116.011719 48.953125 116.351562 C 49.152344 116.695312 49.273438 117.0625 49.320312 117.457031 C 49.363281 117.851562 49.332031 118.238281 49.214844 118.617188 C 49.101562 118.996094 48.917969 119.339844 48.660156 119.640625 C 48.40625 119.945312 48.101562 120.183594 47.746094 120.359375 L 37.804688 126.097656 C 37.363281 126.355469 36.886719 126.488281 36.375 126.488281 Z M 140.714844 66.246094 C 140.398438 66.246094 140.09375 66.195312 139.792969 66.09375 C 139.496094 65.992188 139.222656 65.84375 138.972656 65.652344 C 138.726562 65.460938 138.511719 65.234375 138.339844 64.972656 C 138.164062 64.710938 138.035156 64.425781 137.953125 64.121094 C 137.871094 63.820312 137.84375 63.507812 137.863281 63.195312 C 137.882812 62.882812 137.953125 62.578125 138.070312 62.289062 C 138.191406 61.996094 138.355469 61.734375 138.5625 61.496094 C 138.769531 61.257812 139.007812 61.058594 139.277344 60.902344 L 149.21875 55.164062 C 149.546875 54.972656 149.902344 54.855469 150.277344 54.804688 C 150.65625 54.753906 151.027344 54.777344 151.394531 54.875 C 151.761719 54.976562 152.097656 55.140625 152.398438 55.371094 C 152.703125 55.605469 152.949219 55.882812 153.140625 56.214844 C 153.328125 56.542969 153.449219 56.898438 153.5 57.273438 C 153.546875 57.652344 153.523438 58.023438 153.425781 58.394531 C 153.324219 58.761719 153.160156 59.09375 152.929688 59.398438 C 152.695312 59.699219 152.414062 59.945312 152.085938 60.136719 L 142.148438 65.855469 C 141.703125 66.117188 141.226562 66.246094 140.714844 66.246094 Z M 66.261719 46.296875 C 65.75 46.296875 65.273438 46.167969 64.832031 45.914062 C 64.386719 45.65625 64.039062 45.308594 63.78125 44.863281 L 58.046875 34.925781 C 57.855469 34.59375 57.734375 34.242188 57.6875 33.863281 C 57.636719 33.488281 57.660156 33.117188 57.757812 32.746094 C 57.859375 32.378906 58.023438 32.046875 58.253906 31.742188 C 58.484375 31.441406 58.765625 31.195312 59.097656 31.003906 C 59.425781 30.816406 59.78125 30.695312 60.15625 30.644531 C 60.535156 30.597656 60.90625 30.621094 61.273438 30.71875 C 61.640625 30.816406 61.976562 30.984375 62.277344 31.214844 C 62.578125 31.445312 62.824219 31.726562 63.015625 32.054688 L 68.738281 41.996094 C 68.863281 42.210938 68.957031 42.441406 69.023438 42.6875 C 69.089844 42.929688 69.121094 43.175781 69.121094 43.425781 C 69.121094 43.679688 69.089844 43.925781 69.023438 44.167969 C 68.960938 44.410156 68.863281 44.640625 68.738281 44.859375 C 68.613281 45.078125 68.464844 45.277344 68.285156 45.453125 C 68.109375 45.632812 67.910156 45.785156 67.695312 45.910156 C 67.476562 46.035156 67.246094 46.132812 67.003906 46.199219 C 66.761719 46.265625 66.515625 46.296875 66.261719 46.296875 Z M 120.765625 46.296875 C 120.515625 46.296875 120.265625 46.265625 120.023438 46.199219 C 119.78125 46.132812 119.550781 46.039062 119.332031 45.910156 C 119.117188 45.785156 118.917969 45.632812 118.738281 45.457031 C 118.5625 45.277344 118.410156 45.078125 118.285156 44.863281 C 118.160156 44.644531 118.0625 44.414062 118 44.171875 C 117.933594 43.925781 117.902344 43.679688 117.902344 43.429688 C 117.902344 43.175781 117.933594 42.929688 118 42.6875 C 118.066406 42.441406 118.160156 42.214844 118.285156 41.996094 L 124.023438 32.054688 C 124.214844 31.726562 124.460938 31.445312 124.761719 31.214844 C 125.0625 30.984375 125.398438 30.816406 125.765625 30.71875 C 126.132812 30.621094 126.503906 30.597656 126.882812 30.644531 C 127.261719 30.695312 127.613281 30.816406 127.941406 31.003906 C 128.273438 31.195312 128.554688 31.441406 128.785156 31.742188 C 129.015625 32.046875 129.179688 32.378906 129.28125 32.746094 C 129.378906 33.117188 129.402344 33.488281 129.351562 33.863281 C 129.304688 34.242188 129.183594 34.59375 128.992188 34.925781 L 123.242188 44.863281 C 122.984375 45.308594 122.636719 45.65625 122.191406 45.914062 C 121.75 46.167969 121.273438 46.296875 120.761719 46.296875 Z M 46.308594 66.246094 C 45.796875 66.246094 45.320312 66.117188 44.875 65.855469 L 34.9375 60.121094 C 34.609375 59.929688 34.328125 59.683594 34.097656 59.382812 C 33.863281 59.078125 33.699219 58.746094 33.601562 58.378906 C 33.5 58.007812 33.476562 57.636719 33.527344 57.261719 C 33.578125 56.882812 33.695312 56.53125 33.886719 56.199219 C 34.078125 55.871094 34.324219 55.589844 34.625 55.359375 C 34.925781 55.125 35.261719 54.960938 35.628906 54.863281 C 35.996094 54.765625 36.367188 54.738281 36.746094 54.789062 C 37.125 54.839844 37.476562 54.957031 37.804688 55.148438 L 47.746094 60.902344 C 48.015625 61.058594 48.253906 61.257812 48.460938 61.496094 C 48.667969 61.734375 48.832031 61.996094 48.953125 62.289062 C 49.070312 62.578125 49.140625 62.882812 49.160156 63.195312 C 49.179688 63.507812 49.152344 63.820312 49.070312 64.121094 C 48.988281 64.425781 48.859375 64.710938 48.683594 64.972656 C 48.511719 65.234375 48.296875 65.460938 48.050781 65.652344 C 47.800781 65.84375 47.527344 65.992188 47.230469 66.09375 C 46.929688 66.195312 46.625 66.246094 46.308594 66.246094 Z M 150.652344 126.488281 C 150.140625 126.488281 149.664062 126.359375 149.21875 126.105469 L 139.277344 120.359375 C 138.949219 120.167969 138.667969 119.921875 138.4375 119.621094 C 138.207031 119.320312 138.042969 118.984375 137.945312 118.617188 C 137.84375 118.25 137.820312 117.878906 137.871094 117.5 C 137.921875 117.125 138.039062 116.769531 138.230469 116.441406 C 138.421875 116.113281 138.664062 115.832031 138.96875 115.601562 C 139.269531 115.367188 139.605469 115.203125 139.972656 115.105469 C 140.339844 115.007812 140.710938 114.980469 141.085938 115.03125 C 141.464844 115.078125 141.816406 115.199219 142.148438 115.390625 L 152.085938 121.125 C 152.359375 121.285156 152.601562 121.480469 152.808594 121.71875 C 153.019531 121.957031 153.183594 122.222656 153.304688 122.515625 C 153.425781 122.804688 153.496094 123.109375 153.515625 123.425781 C 153.535156 123.738281 153.507812 124.050781 153.425781 124.355469 C 153.34375 124.660156 153.214844 124.945312 153.039062 125.207031 C 152.863281 125.46875 152.648438 125.695312 152.398438 125.890625 C 152.148438 126.082031 151.871094 126.226562 151.570312 126.328125 C 151.273438 126.429688 150.964844 126.480469 150.648438 126.480469 Z M 150.652344 126.488281 " fill-opacity="1" fill-rule="nonzero"/></g></svg>