<svg xmlns="http://www.w3.org/2000/svg" xmlns:xlink="http://www.w3.org/1999/xlink" width="559" zoomAndPan="magnify" viewBox="0 0 419.25 595.499987" height="794" preserveAspectRatio="xMidYMid meet" version="1.0"><defs><clipPath id="abd01c98df"><path d="M 6.824219 63.867188 L 404.363281 63.867188 L 404.363281 477.875 L 6.824219 477.875 Z M 6.824219 63.867188 " clip-rule="nonzero"/></clipPath></defs><g clip-path="url(#abd01c98df)"><path fill="#16433b" d="M 205.480469 138.347656 C 141.589844 138.347656 89.617188 190.320312 89.617188 254.207031 C 89.597656 260.617188 90.109375 266.980469 91.152344 273.300781 C 92.195312 279.621094 93.761719 285.8125 95.839844 291.871094 C 97.921875 297.933594 100.492188 303.777344 103.554688 309.40625 C 106.617188 315.035156 110.121094 320.367188 114.078125 325.410156 L 135.714844 350.929688 C 137.609375 353.15625 139.292969 355.53125 140.769531 358.058594 C 142.246094 360.582031 143.488281 363.214844 144.496094 365.960938 C 145.503906 368.703125 146.265625 371.515625 146.78125 374.394531 C 147.292969 377.273438 147.550781 380.175781 147.550781 383.097656 L 147.550781 428 C 147.550781 428.8125 147.589844 429.625 147.667969 430.433594 C 147.75 431.242188 147.867188 432.046875 148.027344 432.84375 C 148.183594 433.640625 148.382812 434.429688 148.617188 435.207031 C 148.855469 435.984375 149.128906 436.75 149.4375 437.5 C 149.75 438.25 150.097656 438.984375 150.480469 439.703125 C 150.863281 440.417969 151.28125 441.117188 151.734375 441.792969 C 152.183594 442.46875 152.667969 443.121094 153.183594 443.75 C 153.699219 444.378906 154.246094 444.980469 154.820312 445.554688 C 155.394531 446.128906 155.996094 446.675781 156.625 447.191406 C 157.253906 447.707031 157.90625 448.191406 158.582031 448.640625 C 159.257812 449.09375 159.957031 449.511719 160.671875 449.894531 C 161.390625 450.277344 162.125 450.625 162.875 450.9375 C 163.625 451.246094 164.390625 451.519531 165.167969 451.757812 C 165.949219 451.992188 166.734375 452.191406 167.53125 452.347656 C 168.332031 452.507812 169.132812 452.628906 169.941406 452.707031 C 170.753906 452.785156 171.5625 452.828125 172.375 452.828125 L 173.421875 452.828125 C 173.875 454.589844 174.472656 456.308594 175.210938 457.976562 C 175.949219 459.640625 176.820312 461.238281 177.820312 462.761719 C 178.824219 464.285156 179.941406 465.714844 181.179688 467.050781 C 182.417969 468.390625 183.757812 469.617188 185.199219 470.734375 C 186.640625 471.851562 188.164062 472.84375 189.769531 473.707031 C 191.371094 474.574219 193.039062 475.300781 194.761719 475.890625 C 196.488281 476.480469 198.25 476.925781 200.046875 477.226562 C 201.84375 477.523438 203.65625 477.675781 205.480469 477.675781 C 207.300781 477.675781 209.113281 477.523438 210.910156 477.226562 C 212.710938 476.925781 214.472656 476.480469 216.195312 475.890625 C 217.921875 475.300781 219.585938 474.574219 221.191406 473.707031 C 222.796875 472.84375 224.316406 471.851562 225.757812 470.734375 C 227.199219 469.617188 228.539062 468.390625 229.777344 467.050781 C 231.015625 465.714844 232.136719 464.285156 233.136719 462.761719 C 234.140625 461.238281 235.007812 459.640625 235.746094 457.976562 C 236.484375 456.308594 237.082031 454.589844 237.535156 452.828125 L 238.582031 452.828125 C 239.394531 452.828125 240.207031 452.785156 241.015625 452.707031 C 241.824219 452.628906 242.628906 452.507812 243.425781 452.347656 C 244.222656 452.191406 245.011719 451.992188 245.789062 451.757812 C 246.566406 451.519531 247.332031 451.246094 248.082031 450.9375 C 248.835938 450.625 249.570312 450.277344 250.285156 449.894531 C 251.003906 449.511719 251.699219 449.09375 252.375 448.640625 C 253.050781 448.191406 253.703125 447.707031 254.332031 447.191406 C 254.960938 446.675781 255.5625 446.128906 256.136719 445.554688 C 256.710938 444.980469 257.257812 444.378906 257.773438 443.75 C 258.289062 443.121094 258.773438 442.46875 259.226562 441.792969 C 259.675781 441.117188 260.09375 440.417969 260.476562 439.703125 C 260.859375 438.984375 261.207031 438.25 261.519531 437.5 C 261.832031 436.75 262.105469 435.984375 262.339844 435.207031 C 262.578125 434.429688 262.773438 433.640625 262.933594 432.84375 C 263.089844 432.046875 263.210938 431.242188 263.289062 430.433594 C 263.371094 429.625 263.410156 428.8125 263.410156 428 L 263.410156 383.097656 C 263.410156 380.175781 263.667969 377.273438 264.179688 374.394531 C 264.695312 371.515625 265.457031 368.703125 266.464844 365.957031 C 267.472656 363.214844 268.714844 360.578125 270.191406 358.050781 C 271.664062 355.527344 273.351562 353.148438 275.242188 350.921875 L 296.074219 326.433594 L 296.933594 325.351562 C 300.882812 320.3125 304.382812 314.980469 307.4375 309.355469 C 310.492188 303.730469 313.058594 297.890625 315.136719 291.835938 C 317.214844 285.78125 318.773438 279.597656 319.8125 273.28125 C 320.855469 266.96875 321.363281 260.609375 321.339844 254.207031 C 321.339844 190.320312 269.367188 138.347656 205.480469 138.347656 Z M 205.480469 461.101562 C 204.03125 461.097656 202.605469 460.90625 201.207031 460.53125 C 199.808594 460.152344 198.480469 459.601562 197.226562 458.875 C 195.972656 458.148438 194.832031 457.273438 193.808594 456.246094 C 192.785156 455.222656 191.910156 454.082031 191.183594 452.828125 L 219.773438 452.828125 C 219.050781 454.082031 218.175781 455.222656 217.152344 456.246094 C 216.125 457.273438 214.988281 458.148438 213.734375 458.875 C 212.476562 459.601562 211.152344 460.152344 209.753906 460.53125 C 208.351562 460.90625 206.929688 461.097656 205.480469 461.101562 Z M 238.582031 436.273438 L 172.375 436.273438 C 171.832031 436.273438 171.292969 436.222656 170.761719 436.117188 C 170.230469 436.007812 169.710938 435.851562 169.210938 435.644531 C 168.707031 435.4375 168.230469 435.183594 167.777344 434.878906 C 167.328125 434.578125 166.910156 434.234375 166.523438 433.851562 C 166.140625 433.464844 165.796875 433.046875 165.496094 432.597656 C 165.195312 432.144531 164.9375 431.667969 164.730469 431.164062 C 164.523438 430.664062 164.367188 430.144531 164.257812 429.613281 C 164.152344 429.082031 164.101562 428.542969 164.101562 428 L 164.101562 394.894531 L 246.859375 394.894531 L 246.859375 428 C 246.859375 428.542969 246.804688 429.082031 246.699219 429.613281 C 246.59375 430.144531 246.4375 430.664062 246.226562 431.164062 C 246.019531 431.667969 245.765625 432.144531 245.464844 432.597656 C 245.160156 433.046875 244.816406 433.464844 244.433594 433.851562 C 244.050781 434.234375 243.632812 434.578125 243.179688 434.878906 C 242.726562 435.183594 242.25 435.4375 241.75 435.644531 C 241.246094 435.851562 240.730469 436.007812 240.195312 436.117188 C 239.664062 436.222656 239.125 436.273438 238.582031 436.273438 Z M 283.917969 315.148438 L 262.65625 340.199219 C 260.386719 342.867188 258.34375 345.691406 256.523438 348.683594 C 254.699219 351.671875 253.125 354.785156 251.800781 358.027344 C 250.472656 361.265625 249.410156 364.589844 248.609375 367.996094 C 247.808594 371.402344 247.285156 374.851562 247.03125 378.34375 L 163.925781 378.34375 C 163.675781 374.855469 163.148438 371.40625 162.351562 367.996094 C 161.550781 364.589844 160.488281 361.265625 159.160156 358.027344 C 157.832031 354.789062 156.257812 351.675781 154.4375 348.6875 C 152.617188 345.699219 150.570312 342.871094 148.300781 340.207031 L 127.824219 316.132812 L 127.070312 315.179688 C 123.6875 310.859375 120.691406 306.289062 118.074219 301.46875 C 115.457031 296.648438 113.257812 291.644531 111.480469 286.453125 C 109.703125 281.265625 108.367188 275.964844 107.476562 270.554688 C 106.585938 265.140625 106.148438 259.691406 106.171875 254.207031 C 106.171875 252.582031 106.210938 250.957031 106.289062 249.335938 C 106.371094 247.710938 106.488281 246.09375 106.648438 244.472656 C 106.808594 242.855469 107.007812 241.246094 107.246094 239.636719 C 107.484375 238.027344 107.761719 236.429688 108.078125 234.835938 C 108.394531 233.238281 108.75 231.65625 109.148438 230.078125 C 109.542969 228.5 109.976562 226.9375 110.445312 225.378906 C 110.917969 223.824219 111.429688 222.28125 111.976562 220.753906 C 112.523438 219.222656 113.109375 217.707031 113.730469 216.203125 C 114.351562 214.703125 115.011719 213.21875 115.707031 211.75 C 116.398438 210.277344 117.128906 208.828125 117.898438 207.394531 C 118.664062 205.960938 119.464844 204.546875 120.300781 203.152344 C 121.136719 201.757812 122.003906 200.386719 122.90625 199.035156 C 123.808594 197.683594 124.746094 196.355469 125.714844 195.050781 C 126.683594 193.746094 127.679688 192.464844 128.710938 191.207031 C 129.742188 189.953125 130.804688 188.722656 131.894531 187.515625 C 132.988281 186.3125 134.109375 185.136719 135.257812 183.988281 C 136.40625 182.835938 137.582031 181.71875 138.789062 180.625 C 139.992188 179.535156 141.222656 178.472656 142.476562 177.441406 C 143.734375 176.410156 145.015625 175.410156 146.320312 174.441406 C 147.625 173.476562 148.953125 172.539062 150.304688 171.636719 C 151.65625 170.734375 153.03125 169.863281 154.425781 169.027344 C 155.820312 168.191406 157.230469 167.390625 158.664062 166.625 C 160.097656 165.859375 161.550781 165.128906 163.019531 164.433594 C 164.488281 163.738281 165.972656 163.082031 167.476562 162.457031 C 168.976562 161.835938 170.492188 161.253906 172.023438 160.703125 C 173.554688 160.15625 175.097656 159.648438 176.652344 159.175781 C 178.207031 158.703125 179.773438 158.269531 181.347656 157.875 C 182.925781 157.480469 184.511719 157.125 186.105469 156.808594 C 187.699219 156.492188 189.300781 156.210938 190.90625 155.972656 C 192.515625 155.734375 194.128906 155.535156 195.746094 155.378906 C 197.363281 155.21875 198.984375 155.097656 200.605469 155.019531 C 202.230469 154.9375 203.855469 154.898438 205.480469 154.898438 C 207.105469 154.898438 208.730469 154.9375 210.351562 155.019531 C 211.976562 155.097656 213.597656 155.21875 215.214844 155.378906 C 216.832031 155.535156 218.441406 155.734375 220.050781 155.972656 C 221.660156 156.210938 223.257812 156.492188 224.851562 156.808594 C 226.449219 157.125 228.03125 157.480469 229.609375 157.875 C 231.1875 158.269531 232.75 158.703125 234.308594 159.175781 C 235.863281 159.648438 237.40625 160.15625 238.933594 160.703125 C 240.464844 161.253906 241.980469 161.835938 243.484375 162.457031 C 244.984375 163.082031 246.46875 163.738281 247.9375 164.433594 C 249.410156 165.128906 250.859375 165.859375 252.292969 166.625 C 253.726562 167.390625 255.140625 168.191406 256.535156 169.027344 C 257.929688 169.863281 259.300781 170.734375 260.652344 171.636719 C 262.003906 172.539062 263.332031 173.476562 264.636719 174.441406 C 265.941406 175.410156 267.222656 176.410156 268.480469 177.441406 C 269.738281 178.472656 270.96875 179.535156 272.171875 180.625 C 273.375 181.71875 274.550781 182.835938 275.703125 183.988281 C 276.851562 185.136719 277.972656 186.3125 279.0625 187.515625 C 280.152344 188.722656 281.214844 189.953125 282.246094 191.207031 C 283.277344 192.464844 284.277344 193.746094 285.246094 195.050781 C 286.214844 196.355469 287.148438 197.683594 288.050781 199.035156 C 288.953125 200.386719 289.824219 201.757812 290.660156 203.152344 C 291.496094 204.546875 292.296875 205.960938 293.0625 207.394531 C 293.828125 208.828125 294.558594 210.277344 295.253906 211.75 C 295.949219 213.21875 296.605469 214.703125 297.230469 216.203125 C 297.851562 217.707031 298.433594 219.222656 298.984375 220.753906 C 299.53125 222.28125 300.039062 223.824219 300.511719 225.378906 C 300.984375 226.9375 301.417969 228.5 301.8125 230.078125 C 302.207031 231.65625 302.5625 233.238281 302.878906 234.835938 C 303.195312 236.429688 303.476562 238.027344 303.714844 239.636719 C 303.953125 241.246094 304.152344 242.855469 304.308594 244.472656 C 304.46875 246.09375 304.589844 247.710938 304.667969 249.335938 C 304.75 250.957031 304.789062 252.582031 304.789062 254.207031 C 304.8125 259.691406 304.378906 265.136719 303.488281 270.546875 C 302.601562 275.953125 301.269531 281.253906 299.492188 286.4375 C 297.714844 291.625 295.519531 296.625 292.90625 301.445312 C 290.292969 306.261719 287.296875 310.832031 283.917969 315.148438 Z M 48.238281 270.761719 L 15.136719 270.761719 C 14.59375 270.761719 14.054688 270.707031 13.523438 270.601562 C 12.988281 270.496094 12.472656 270.335938 11.96875 270.128906 C 11.46875 269.921875 10.992188 269.667969 10.539062 269.363281 C 10.085938 269.0625 9.667969 268.71875 9.285156 268.335938 C 8.902344 267.953125 8.558594 267.535156 8.257812 267.082031 C 7.953125 266.628906 7.699219 266.152344 7.492188 265.652344 C 7.285156 265.148438 7.125 264.632812 7.019531 264.097656 C 6.914062 263.566406 6.863281 263.027344 6.863281 262.484375 C 6.863281 261.941406 6.914062 261.402344 7.019531 260.871094 C 7.125 260.335938 7.285156 259.820312 7.492188 259.316406 C 7.699219 258.816406 7.953125 258.339844 8.257812 257.886719 C 8.558594 257.433594 8.902344 257.015625 9.285156 256.632812 C 9.667969 256.25 10.085938 255.90625 10.539062 255.601562 C 10.992188 255.300781 11.46875 255.046875 11.96875 254.839844 C 12.472656 254.628906 12.988281 254.472656 13.523438 254.367188 C 14.054688 254.261719 14.59375 254.207031 15.136719 254.207031 L 48.238281 254.207031 C 48.785156 254.207031 49.320312 254.261719 49.855469 254.367188 C 50.386719 254.472656 50.90625 254.628906 51.40625 254.839844 C 51.910156 255.046875 52.386719 255.300781 52.839844 255.601562 C 53.289062 255.90625 53.707031 256.25 54.09375 256.632812 C 54.476562 257.015625 54.820312 257.433594 55.121094 257.886719 C 55.421875 258.339844 55.679688 258.816406 55.886719 259.316406 C 56.09375 259.820312 56.25 260.335938 56.355469 260.871094 C 56.464844 261.402344 56.515625 261.941406 56.515625 262.484375 C 56.515625 263.027344 56.464844 263.566406 56.355469 264.097656 C 56.25 264.632812 56.09375 265.148438 55.886719 265.652344 C 55.679688 266.152344 55.421875 266.628906 55.121094 267.082031 C 54.820312 267.535156 54.476562 267.953125 54.09375 268.335938 C 53.707031 268.71875 53.289062 269.0625 52.839844 269.363281 C 52.386719 269.667969 51.910156 269.921875 51.40625 270.128906 C 50.90625 270.335938 50.386719 270.496094 49.855469 270.601562 C 49.320312 270.707031 48.785156 270.761719 48.238281 270.761719 Z M 395.820312 270.761719 L 362.71875 270.761719 C 362.175781 270.761719 361.636719 270.707031 361.105469 270.601562 C 360.570312 270.496094 360.054688 270.335938 359.550781 270.128906 C 359.050781 269.921875 358.574219 269.667969 358.121094 269.363281 C 357.667969 269.0625 357.25 268.71875 356.867188 268.335938 C 356.480469 267.953125 356.140625 267.535156 355.835938 267.082031 C 355.535156 266.628906 355.28125 266.152344 355.074219 265.652344 C 354.863281 265.148438 354.707031 264.632812 354.601562 264.097656 C 354.496094 263.566406 354.441406 263.027344 354.441406 262.484375 C 354.441406 261.941406 354.496094 261.402344 354.601562 260.871094 C 354.707031 260.335938 354.863281 259.820312 355.074219 259.316406 C 355.28125 258.816406 355.535156 258.339844 355.835938 257.886719 C 356.140625 257.433594 356.480469 257.015625 356.867188 256.632812 C 357.25 256.25 357.667969 255.90625 358.121094 255.601562 C 358.574219 255.300781 359.050781 255.046875 359.550781 254.839844 C 360.054688 254.628906 360.570312 254.472656 361.105469 254.367188 C 361.636719 254.261719 362.175781 254.207031 362.71875 254.207031 L 395.820312 254.207031 C 396.363281 254.207031 396.902344 254.261719 397.4375 254.367188 C 397.96875 254.472656 398.484375 254.628906 398.988281 254.839844 C 399.492188 255.046875 399.96875 255.300781 400.417969 255.601562 C 400.871094 255.90625 401.289062 256.25 401.671875 256.632812 C 402.058594 257.015625 402.402344 257.433594 402.703125 257.886719 C 403.003906 258.339844 403.257812 258.816406 403.46875 259.316406 C 403.675781 259.820312 403.832031 260.335938 403.9375 260.871094 C 404.042969 261.402344 404.097656 261.941406 404.097656 262.484375 C 404.097656 263.027344 404.042969 263.566406 403.9375 264.097656 C 403.832031 264.632812 403.675781 265.148438 403.46875 265.652344 C 403.257812 266.152344 403.003906 266.628906 402.703125 267.082031 C 402.402344 267.535156 402.058594 267.953125 401.671875 268.335938 C 401.289062 268.71875 400.871094 269.0625 400.417969 269.363281 C 399.96875 269.667969 399.492188 269.921875 398.988281 270.128906 C 398.484375 270.335938 397.96875 270.496094 397.4375 270.601562 C 396.902344 270.707031 396.363281 270.761719 395.820312 270.761719 Z M 205.480469 113.519531 C 204.9375 113.519531 204.398438 113.46875 203.863281 113.363281 C 203.332031 113.253906 202.8125 113.097656 202.3125 112.890625 C 201.808594 112.683594 201.332031 112.429688 200.882812 112.125 C 200.429688 111.824219 200.011719 111.480469 199.628906 111.097656 C 199.242188 110.710938 198.898438 110.292969 198.597656 109.84375 C 198.296875 109.390625 198.042969 108.914062 197.832031 108.410156 C 197.625 107.910156 197.46875 107.390625 197.363281 106.859375 C 197.257812 106.328125 197.203125 105.789062 197.203125 105.246094 L 197.203125 72.140625 C 197.203125 71.597656 197.257812 71.058594 197.363281 70.527344 C 197.46875 69.996094 197.625 69.476562 197.832031 68.976562 C 198.042969 68.472656 198.296875 67.996094 198.597656 67.542969 C 198.898438 67.09375 199.242188 66.675781 199.628906 66.289062 C 200.011719 65.90625 200.429688 65.5625 200.882812 65.261719 C 201.332031 64.960938 201.808594 64.703125 202.3125 64.496094 C 202.8125 64.289062 203.332031 64.132812 203.863281 64.023438 C 204.398438 63.917969 204.9375 63.867188 205.480469 63.867188 C 206.023438 63.867188 206.5625 63.917969 207.09375 64.023438 C 207.625 64.132812 208.144531 64.289062 208.644531 64.496094 C 209.148438 64.703125 209.625 64.960938 210.078125 65.261719 C 210.527344 65.5625 210.945312 65.90625 211.332031 66.289062 C 211.714844 66.675781 212.058594 67.09375 212.359375 67.542969 C 212.664062 67.996094 212.917969 68.472656 213.125 68.976562 C 213.332031 69.476562 213.488281 69.996094 213.597656 70.527344 C 213.703125 71.058594 213.753906 71.597656 213.753906 72.140625 L 213.753906 105.246094 C 213.753906 105.789062 213.703125 106.328125 213.597656 106.859375 C 213.488281 107.390625 213.332031 107.910156 213.125 108.410156 C 212.917969 108.914062 212.664062 109.390625 212.359375 109.84375 C 212.058594 110.292969 211.714844 110.710938 211.332031 111.097656 C 210.945312 111.480469 210.527344 111.824219 210.078125 112.125 C 209.625 112.429688 209.148438 112.683594 208.644531 112.890625 C 208.144531 113.097656 207.625 113.253906 207.09375 113.363281 C 206.5625 113.46875 206.023438 113.519531 205.480469 113.519531 Z M 40.640625 365.929688 C 39.734375 365.929688 38.851562 365.78125 37.992188 365.484375 C 37.132812 365.191406 36.34375 364.769531 35.621094 364.214844 C 34.902344 363.660156 34.289062 363.007812 33.785156 362.25 C 33.28125 361.496094 32.910156 360.679688 32.675781 359.804688 C 32.441406 358.925781 32.351562 358.035156 32.410156 357.128906 C 32.46875 356.222656 32.667969 355.347656 33.011719 354.507812 C 33.359375 353.667969 33.828125 352.90625 34.425781 352.222656 C 35.023438 351.535156 35.710938 350.964844 36.496094 350.507812 L 65.167969 333.957031 C 65.636719 333.640625 66.136719 333.378906 66.660156 333.167969 C 67.183594 332.953125 67.726562 332.796875 68.28125 332.695312 C 68.839844 332.59375 69.398438 332.550781 69.964844 332.5625 C 70.53125 332.578125 71.089844 332.648438 71.640625 332.777344 C 72.191406 332.90625 72.722656 333.085938 73.238281 333.324219 C 73.75 333.5625 74.234375 333.847656 74.691406 334.183594 C 75.144531 334.523438 75.5625 334.902344 75.9375 335.324219 C 76.316406 335.746094 76.644531 336.199219 76.929688 336.691406 C 77.210938 337.179688 77.441406 337.695312 77.621094 338.230469 C 77.800781 338.769531 77.921875 339.316406 77.984375 339.878906 C 78.050781 340.441406 78.058594 341.003906 78.007812 341.566406 C 77.960938 342.132812 77.851562 342.683594 77.691406 343.226562 C 77.527344 343.765625 77.308594 344.285156 77.039062 344.785156 C 76.769531 345.28125 76.453125 345.746094 76.085938 346.179688 C 75.722656 346.609375 75.316406 347 74.871094 347.351562 C 74.425781 347.699219 73.949219 348 73.445312 348.25 L 44.773438 364.800781 C 43.496094 365.550781 42.121094 365.925781 40.640625 365.929688 Z M 341.652344 192.140625 C 340.746094 192.136719 339.863281 191.988281 339.003906 191.691406 C 338.144531 191.398438 337.355469 190.976562 336.636719 190.421875 C 335.917969 189.867188 335.304688 189.210938 334.800781 188.457031 C 334.296875 187.703125 333.929688 186.886719 333.695312 186.007812 C 333.457031 185.132812 333.371094 184.242188 333.429688 183.335938 C 333.484375 182.429688 333.6875 181.554688 334.03125 180.71875 C 334.378906 179.878906 334.847656 179.117188 335.445312 178.429688 C 336.042969 177.746094 336.730469 177.175781 337.515625 176.71875 L 366.1875 160.164062 C 366.65625 159.894531 367.148438 159.671875 367.664062 159.496094 C 368.179688 159.320312 368.707031 159.195312 369.246094 159.125 C 369.785156 159.054688 370.328125 159.035156 370.867188 159.070312 C 371.410156 159.105469 371.945312 159.195312 372.472656 159.335938 C 372.996094 159.476562 373.503906 159.667969 373.992188 159.90625 C 374.476562 160.148438 374.9375 160.433594 375.371094 160.765625 C 375.800781 161.097656 376.195312 161.464844 376.554688 161.875 C 376.914062 162.285156 377.226562 162.722656 377.5 163.195312 C 377.773438 163.664062 377.996094 164.160156 378.167969 164.671875 C 378.34375 165.1875 378.46875 165.714844 378.539062 166.253906 C 378.609375 166.792969 378.625 167.335938 378.589844 167.878906 C 378.554688 168.421875 378.464844 168.953125 378.324219 169.480469 C 378.183594 170.003906 377.992188 170.511719 377.753906 171 C 377.511719 171.484375 377.226562 171.945312 376.894531 172.375 C 376.5625 172.808594 376.191406 173.203125 375.78125 173.5625 C 375.375 173.917969 374.933594 174.234375 374.460938 174.503906 L 345.789062 191.011719 C 344.511719 191.761719 343.132812 192.136719 341.652344 192.140625 Z M 126.867188 134.585938 C 126.140625 134.585938 125.429688 134.492188 124.730469 134.300781 C 124.027344 134.113281 123.363281 133.835938 122.738281 133.472656 C 122.109375 133.113281 121.539062 132.671875 121.027344 132.160156 C 120.511719 131.648438 120.074219 131.078125 119.710938 130.449219 L 103.160156 101.777344 C 102.890625 101.304688 102.667969 100.8125 102.492188 100.296875 C 102.316406 99.785156 102.195312 99.257812 102.125 98.71875 C 102.050781 98.179688 102.035156 97.636719 102.070312 97.097656 C 102.105469 96.554688 102.195312 96.019531 102.335938 95.496094 C 102.476562 94.96875 102.667969 94.464844 102.90625 93.976562 C 103.148438 93.488281 103.433594 93.03125 103.765625 92.597656 C 104.09375 92.167969 104.464844 91.773438 104.875 91.414062 C 105.28125 91.054688 105.722656 90.742188 106.191406 90.46875 C 106.664062 90.199219 107.15625 89.972656 107.671875 89.800781 C 108.1875 89.625 108.710938 89.503906 109.25 89.429688 C 109.789062 89.359375 110.332031 89.34375 110.875 89.378906 C 111.417969 89.414062 111.949219 89.503906 112.476562 89.644531 C 113 89.785156 113.507812 89.972656 113.992188 90.214844 C 114.480469 90.457031 114.941406 90.742188 115.371094 91.070312 C 115.800781 91.402344 116.199219 91.773438 116.554688 92.183594 C 116.914062 92.589844 117.230469 93.03125 117.5 93.5 L 134.007812 122.171875 C 134.1875 122.484375 134.347656 122.808594 134.484375 123.140625 C 134.625 123.476562 134.738281 123.816406 134.832031 124.164062 C 134.925781 124.515625 134.996094 124.867188 135.042969 125.226562 C 135.089844 125.582031 135.117188 125.941406 135.117188 126.304688 C 135.117188 126.664062 135.09375 127.023438 135.046875 127.382812 C 135 127.742188 134.929688 128.09375 134.835938 128.441406 C 134.742188 128.792969 134.628906 129.132812 134.492188 129.464844 C 134.351562 129.800781 134.195312 130.125 134.015625 130.4375 C 133.832031 130.75 133.632812 131.050781 133.414062 131.335938 C 133.195312 131.625 132.957031 131.894531 132.703125 132.152344 C 132.449219 132.40625 132.179688 132.644531 131.894531 132.863281 C 131.605469 133.085938 131.308594 133.285156 130.996094 133.46875 C 130.683594 133.648438 130.359375 133.808594 130.027344 133.949219 C 129.695312 134.085938 129.351562 134.203125 129.003906 134.296875 C 128.65625 134.394531 128.304688 134.464844 127.945312 134.511719 C 127.585938 134.558594 127.226562 134.585938 126.867188 134.585938 Z M 284.105469 134.585938 C 283.746094 134.585938 283.386719 134.5625 283.027344 134.515625 C 282.667969 134.464844 282.316406 134.394531 281.964844 134.300781 C 281.617188 134.207031 281.277344 134.089844 280.941406 133.953125 C 280.609375 133.8125 280.285156 133.652344 279.972656 133.472656 C 279.660156 133.292969 279.359375 133.089844 279.074219 132.871094 C 278.789062 132.652344 278.515625 132.414062 278.261719 132.15625 C 278.007812 131.902344 277.769531 131.628906 277.550781 131.34375 C 277.328125 131.054688 277.128906 130.757812 276.949219 130.441406 C 276.769531 130.128906 276.609375 129.804688 276.472656 129.472656 C 276.332031 129.140625 276.21875 128.796875 276.125 128.449219 C 276.03125 128.097656 275.960938 127.746094 275.914062 127.386719 C 275.867188 127.027344 275.84375 126.667969 275.84375 126.308594 C 275.84375 125.945312 275.867188 125.585938 275.914062 125.226562 C 275.960938 124.871094 276.03125 124.515625 276.125 124.167969 C 276.21875 123.816406 276.335938 123.476562 276.472656 123.144531 C 276.613281 122.808594 276.769531 122.484375 276.953125 122.171875 L 293.503906 93.5 C 293.773438 93.03125 294.089844 92.589844 294.449219 92.183594 C 294.804688 91.773438 295.203125 91.402344 295.632812 91.070312 C 296.0625 90.742188 296.523438 90.457031 297.011719 90.214844 C 297.496094 89.972656 298.003906 89.785156 298.527344 89.644531 C 299.054688 89.503906 299.585938 89.414062 300.128906 89.378906 C 300.671875 89.34375 301.214844 89.359375 301.753906 89.429688 C 302.289062 89.503906 302.816406 89.625 303.332031 89.800781 C 303.847656 89.972656 304.339844 90.199219 304.8125 90.46875 C 305.28125 90.742188 305.722656 91.054688 306.128906 91.414062 C 306.539062 91.773438 306.910156 92.167969 307.238281 92.597656 C 307.570312 93.03125 307.855469 93.488281 308.097656 93.976562 C 308.335938 94.464844 308.527344 94.96875 308.667969 95.496094 C 308.808594 96.019531 308.898438 96.554688 308.933594 97.097656 C 308.96875 97.636719 308.953125 98.179688 308.878906 98.71875 C 308.808594 99.257812 308.6875 99.785156 308.511719 100.296875 C 308.335938 100.8125 308.113281 101.304688 307.84375 101.777344 L 291.246094 130.449219 C 290.882812 131.078125 290.445312 131.648438 289.933594 132.160156 C 289.421875 132.671875 288.851562 133.113281 288.222656 133.472656 C 287.59375 133.835938 286.929688 134.113281 286.230469 134.300781 C 285.53125 134.492188 284.816406 134.585938 284.089844 134.585938 Z M 69.304688 192.140625 C 67.824219 192.136719 66.445312 191.761719 65.167969 191.011719 L 36.496094 174.460938 C 36.027344 174.1875 35.585938 173.875 35.175781 173.515625 C 34.769531 173.15625 34.398438 172.761719 34.066406 172.332031 C 33.738281 171.898438 33.449219 171.441406 33.210938 170.953125 C 32.96875 170.464844 32.777344 169.960938 32.636719 169.433594 C 32.496094 168.910156 32.410156 168.375 32.375 167.832031 C 32.339844 167.289062 32.355469 166.75 32.425781 166.210938 C 32.496094 165.671875 32.621094 165.144531 32.792969 164.632812 C 32.96875 164.117188 33.191406 163.625 33.464844 163.152344 C 33.734375 162.683594 34.050781 162.242188 34.410156 161.832031 C 34.769531 161.425781 35.164062 161.054688 35.59375 160.722656 C 36.023438 160.394531 36.484375 160.105469 36.972656 159.867188 C 37.457031 159.625 37.964844 159.4375 38.488281 159.292969 C 39.015625 159.152344 39.550781 159.066406 40.089844 159.03125 C 40.632812 158.996094 41.175781 159.011719 41.714844 159.082031 C 42.253906 159.152344 42.777344 159.277344 43.292969 159.453125 C 43.808594 159.625 44.300781 159.847656 44.773438 160.121094 L 73.445312 176.71875 C 74.226562 177.175781 74.917969 177.746094 75.511719 178.429688 C 76.109375 179.117188 76.582031 179.878906 76.925781 180.71875 C 77.269531 181.554688 77.472656 182.429688 77.53125 183.335938 C 77.589844 184.242188 77.5 185.132812 77.265625 186.007812 C 77.03125 186.886719 76.660156 187.703125 76.15625 188.457031 C 75.652344 189.210938 75.042969 189.867188 74.320312 190.421875 C 73.601562 190.976562 72.8125 191.398438 71.957031 191.691406 C 71.097656 191.988281 70.214844 192.136719 69.304688 192.140625 Z M 370.324219 365.929688 C 368.847656 365.933594 367.472656 365.5625 366.195312 364.824219 L 337.515625 348.25 C 337.042969 347.980469 336.605469 347.664062 336.195312 347.304688 C 335.789062 346.945312 335.417969 346.550781 335.089844 346.121094 C 334.757812 345.691406 334.472656 345.230469 334.234375 344.742188 C 333.992188 344.257812 333.800781 343.75 333.660156 343.226562 C 333.519531 342.699219 333.433594 342.167969 333.398438 341.625 C 333.363281 341.082031 333.378906 340.542969 333.449219 340.003906 C 333.523438 339.464844 333.644531 338.9375 333.820312 338.425781 C 333.992188 337.910156 334.21875 337.417969 334.488281 336.945312 C 334.761719 336.476562 335.074219 336.035156 335.433594 335.628906 C 335.792969 335.21875 336.1875 334.847656 336.617188 334.519531 C 337.046875 334.1875 337.507812 333.902344 337.992188 333.660156 C 338.480469 333.421875 338.988281 333.230469 339.511719 333.089844 C 340.035156 332.949219 340.570312 332.859375 341.113281 332.824219 C 341.652344 332.789062 342.195312 332.804688 342.734375 332.875 C 343.273438 332.945312 343.796875 333.070312 344.3125 333.242188 C 344.828125 333.417969 345.320312 333.640625 345.789062 333.910156 L 374.460938 350.460938 C 375.253906 350.917969 375.949219 351.488281 376.550781 352.171875 C 377.152344 352.859375 377.625 353.621094 377.976562 354.464844 C 378.324219 355.308594 378.527344 356.183594 378.585938 357.09375 C 378.648438 358.003906 378.558594 358.898438 378.324219 359.777344 C 378.085938 360.660156 377.714844 361.476562 377.207031 362.234375 C 376.699219 362.992188 376.085938 363.648438 375.359375 364.203125 C 374.636719 364.757812 373.84375 365.179688 372.980469 365.472656 C 372.117188 365.765625 371.230469 365.910156 370.316406 365.910156 Z M 370.324219 365.929688 " fill-opacity="1" fill-rule="nonzero"/></g></svg>