<?xml version="1.0" encoding="UTF-8"?>
<!DOCTYPE svg PUBLIC "-//W3C//DTD SVG 1.1//EN" "http://www.w3.org/Graphics/SVG/1.1/DTD/svg11.dtd">
<!-- Creator: CorelDRAW -->
<svg xmlns="http://www.w3.org/2000/svg" xml:space="preserve" width="512px" height="512px" version="1.1" style="shape-rendering:geometricPrecision; text-rendering:geometricPrecision; image-rendering:optimizeQuality; fill-rule:evenodd; clip-rule:evenodd"
viewBox="0 0 512 512"
 xmlns:xlink="http://www.w3.org/1999/xlink">
 <defs>
  <style type="text/css">
   <![CDATA[
    .fil0 {fill:black}
   ]]>
  </style>
 </defs>
 <g id="Layer_x0020_1">
  <metadata id="CorelCorpID_0Corel-Layer"/>
  <g id="_636663096">
   <g>
    <g>
     <path class="fil0" d="M271 466l-30 0c-4,0 -7,-3 -7,-7l0 -402c0,-2 1,-5 3,-6 2,-1 5,-1 7,0 3,1 7,3 12,3 5,0 9,-2 12,-3 2,-1 5,-1 7,0 2,1 3,4 3,6l0 402c0,4 -3,7 -7,7zm-23 -14l16 0 0 -385c-2,1 -5,1 -8,1 -3,0 -6,0 -8,-1l0 385z"/>
    </g>
    <g>
     <path class="fil0" d="M341 512l-170 0c-4,0 -7,-3 -7,-7l0 -23c0,-17 13,-30 30,-30l124 0c17,0 30,13 30,30l0 23c0,4 -3,7 -7,7zm-163 -14l156 0 0 -16c0,-9 -7,-16 -16,-16l-124 0c-9,0 -16,7 -16,16l0 16z"/>
    </g>
    <g>
     <path class="fil0" d="M256 68c-19,0 -34,-15 -34,-34 0,-19 15,-34 34,-34 19,0 34,15 34,34 0,19 -15,34 -34,34zm0 -54c-11,0 -20,9 -20,20 0,11 9,20 20,20 11,0 20,-9 20,-20 0,-11 -9,-20 -20,-20z"/>
    </g>
    <g>
     <g>
      <path class="fil0" d="M426 204l-155 0c-4,0 -7,-3 -7,-7l0 -96c0,-4 3,-7 7,-7l155 0c2,0 4,1 5,2l46 51c3,3 3,7 0,10l-46 45c-1,1 -3,2 -5,2zm-148 -14l145 0 39 -38 -39 -44 -145 0 0 82z"/>
     </g>
     <g>
      <path class="fil0" d="M348 156l-77 0c-4,0 -7,-3 -7,-7 0,-4 3,-7 7,-7l77 0c4,0 7,3 7,7 0,4 -3,7 -7,7z"/>
     </g>
    </g>
    <g>
     <g>
      <path class="fil0" d="M241 323l-155 0c-2,0 -4,-1 -5,-2l-46 -45c-3,-3 -3,-7 0,-10l46 -51c1,-1 3,-2 5,-2l155 0c4,0 7,3 7,7l0 96c0,4 -3,7 -7,7zm-152 -14l145 0 0 -82 -145 0 -39 44 39 38z"/>
     </g>
     <g>
      <path class="fil0" d="M241 275l-77 0c-4,0 -7,-3 -7,-7 0,-4 3,-7 7,-7l77 0c4,0 7,3 7,7 0,4 -3,7 -7,7z"/>
     </g>
    </g>
   </g>
  </g>
 </g>
</svg>
