<svg xmlns="http://www.w3.org/2000/svg" xmlns:xlink="http://www.w3.org/1999/xlink" width="559" zoomAndPan="magnify" viewBox="0 0 419.25 595.499987" height="794" preserveAspectRatio="xMidYMid meet" version="1.0"><path fill="#16433b" d="M 168.363281 435.558594 C 163.292969 431.96875 158.496094 428.046875 153.972656 423.789062 C 149.445312 419.535156 145.234375 414.988281 141.34375 410.148438 C 137.449219 405.308594 133.90625 400.222656 130.71875 394.894531 C 127.53125 389.5625 124.726562 384.035156 122.304688 378.316406 C 122.132812 377.898438 122.003906 377.46875 121.917969 377.027344 C 121.832031 376.585938 121.785156 376.140625 121.789062 375.6875 C 121.789062 375.238281 121.832031 374.792969 121.917969 374.351562 C 122.007812 373.910156 122.136719 373.480469 122.308594 373.0625 C 122.480469 372.644531 122.691406 372.25 122.9375 371.875 C 123.1875 371.5 123.472656 371.152344 123.789062 370.832031 C 124.105469 370.511719 124.449219 370.226562 124.824219 369.972656 C 125.195312 369.71875 125.589844 369.503906 126.003906 369.332031 C 126.421875 369.15625 126.847656 369.019531 127.289062 368.929688 C 127.730469 368.835938 128.175781 368.789062 128.625 368.785156 C 129.078125 368.78125 129.523438 368.820312 129.964844 368.902344 C 130.410156 368.984375 130.839844 369.109375 131.257812 369.277344 C 131.675781 369.441406 132.074219 369.648438 132.453125 369.894531 C 132.832031 370.136719 133.183594 370.417969 133.507812 370.730469 C 133.828125 371.042969 134.121094 371.386719 134.375 371.753906 C 134.632812 372.125 134.851562 372.515625 135.03125 372.929688 C 137.203125 378.0625 139.722656 383.019531 142.582031 387.800781 C 145.441406 392.582031 148.621094 397.144531 152.113281 401.488281 C 155.605469 405.828125 159.382812 409.90625 163.445312 413.726562 C 167.503906 417.542969 171.808594 421.058594 176.355469 424.28125 C 176.722656 424.542969 177.0625 424.839844 177.371094 425.167969 C 177.679688 425.5 177.957031 425.855469 178.195312 426.238281 C 178.433594 426.625 178.632812 427.027344 178.792969 427.449219 C 178.953125 427.871094 179.074219 428.308594 179.148438 428.753906 C 179.222656 429.199219 179.253906 429.648438 179.238281 430.101562 C 179.226562 430.554688 179.167969 431 179.070312 431.441406 C 178.96875 431.882812 178.824219 432.308594 178.640625 432.722656 C 178.457031 433.132812 178.230469 433.523438 177.96875 433.894531 C 177.710938 434.261719 177.414062 434.601562 177.085938 434.914062 C 176.757812 435.226562 176.402344 435.5 176.019531 435.742188 C 175.636719 435.984375 175.234375 436.1875 174.8125 436.347656 C 174.390625 436.511719 173.957031 436.628906 173.511719 436.707031 C 173.066406 436.785156 172.617188 436.816406 172.164062 436.808594 C 171.710938 436.796875 171.265625 436.742188 170.824219 436.640625 C 170.382812 436.542969 169.953125 436.402344 169.542969 436.21875 C 169.128906 436.039062 168.734375 435.816406 168.363281 435.558594 Z M 168.363281 435.558594 " fill-opacity="1" fill-rule="nonzero"/><path fill="#16433b" d="M 115.527344 357.734375 C 114.644531 354.097656 113.914062 350.355469 113.347656 346.609375 C 113.28125 346.164062 113.261719 345.714844 113.285156 345.261719 C 113.308594 344.8125 113.375 344.367188 113.488281 343.929688 C 113.597656 343.492188 113.75 343.070312 113.941406 342.660156 C 114.136719 342.253906 114.367188 341.867188 114.636719 341.503906 C 114.90625 341.144531 115.207031 340.808594 115.542969 340.507812 C 115.875 340.203125 116.238281 339.933594 116.625 339.703125 C 117.011719 339.46875 117.417969 339.277344 117.84375 339.121094 C 118.265625 338.96875 118.703125 338.859375 119.148438 338.792969 C 119.59375 338.722656 120.042969 338.699219 120.496094 338.71875 C 120.945312 338.742188 121.390625 338.804688 121.828125 338.914062 C 122.269531 339.019531 122.691406 339.167969 123.101562 339.359375 C 123.511719 339.550781 123.898438 339.777344 124.261719 340.046875 C 124.625 340.3125 124.960938 340.609375 125.269531 340.945312 C 125.574219 341.277344 125.84375 341.632812 126.078125 342.019531 C 126.316406 342.40625 126.511719 342.808594 126.667969 343.234375 C 126.824219 343.65625 126.9375 344.09375 127.007812 344.539062 C 127.519531 347.890625 128.175781 351.234375 128.957031 354.484375 C 129.0625 354.921875 129.125 355.371094 129.140625 355.820312 C 129.160156 356.273438 129.132812 356.722656 129.0625 357.171875 C 128.988281 357.617188 128.875 358.054688 128.71875 358.476562 C 128.5625 358.902344 128.367188 359.308594 128.128906 359.695312 C 127.894531 360.082031 127.621094 360.4375 127.3125 360.773438 C 127.007812 361.105469 126.671875 361.402344 126.304688 361.671875 C 125.9375 361.9375 125.550781 362.164062 125.140625 362.355469 C 124.730469 362.546875 124.304688 362.695312 123.863281 362.800781 C 123.421875 362.90625 122.976562 362.96875 122.523438 362.988281 C 122.074219 363.007812 121.625 362.980469 121.175781 362.914062 C 120.726562 362.84375 120.292969 362.730469 119.867188 362.574219 C 119.441406 362.421875 119.035156 362.226562 118.648438 361.988281 C 118.261719 361.753906 117.902344 361.484375 117.566406 361.179688 C 117.234375 360.871094 116.933594 360.539062 116.667969 360.171875 C 116.398438 359.808594 116.167969 359.421875 115.976562 359.011719 C 115.785156 358.601562 115.636719 358.175781 115.527344 357.734375 Z M 115.527344 357.734375 " fill-opacity="1" fill-rule="nonzero"/><path fill="#16433b" d="M 197.917969 179.433594 C 197.488281 179.574219 197.078125 179.757812 196.6875 179.980469 C 196.292969 180.203125 195.925781 180.460938 195.585938 180.757812 C 195.242188 181.050781 194.933594 181.375 194.65625 181.730469 C 194.378906 182.085938 194.136719 182.464844 193.933594 182.867188 C 193.730469 183.269531 193.566406 183.691406 193.445312 184.125 C 193.324219 184.558594 193.246094 185 193.210938 185.449219 C 193.175781 185.902344 193.183594 186.351562 193.234375 186.796875 C 193.289062 187.246094 193.386719 187.683594 193.523438 188.113281 C 193.664062 188.542969 193.84375 188.957031 194.0625 189.351562 C 194.28125 189.746094 194.535156 190.113281 194.828125 190.457031 C 195.121094 190.800781 195.441406 191.113281 195.796875 191.394531 C 196.148438 191.675781 196.527344 191.921875 196.925781 192.128906 C 197.328125 192.335938 197.746094 192.5 198.179688 192.625 C 198.613281 192.75 199.054688 192.832031 199.503906 192.871094 C 199.953125 192.910156 200.402344 192.90625 200.851562 192.855469 C 201.300781 192.808594 201.738281 192.714844 202.171875 192.578125 C 210.738281 189.84375 219.488281 187.953125 228.421875 186.90625 C 224.148438 199.28125 229.972656 208.003906 239.949219 215.339844 C 241.386719 216.304688 242.726562 217.390625 243.972656 218.589844 C 244.15625 225.90625 229.96875 235.257812 221.308594 236.75 C 196.117188 241.09375 176.085938 241.207031 169.964844 252.558594 C 161.019531 269.152344 177.785156 282.617188 183.554688 289.527344 C 199.839844 309.054688 209.152344 310.1875 225.324219 307.738281 C 239.992188 305.53125 240.21875 314.15625 257.523438 314.304688 C 265.289062 314.394531 269.832031 321.027344 275.707031 326.230469 C 282.46875 332.03125 289.820312 336.949219 297.761719 340.988281 C 310.617188 348.1875 304.820312 358.539062 299.71875 369.625 C 285.839844 399.695312 266.167969 402.425781 246.320312 430.386719 C 244.335938 433.320312 242.703125 436.4375 241.421875 439.738281 C 240.140625 443.039062 239.242188 446.4375 238.730469 449.941406 C 236.652344 447.683594 234.921875 445.1875 233.542969 442.449219 C 232.160156 439.710938 231.175781 436.835938 230.589844 433.828125 C 226.6875 412.984375 259.699219 393.546875 222.449219 369.089844 C 219.554688 367.625 216.972656 365.730469 214.699219 363.410156 C 212.429688 361.089844 210.589844 358.46875 209.183594 355.542969 C 204.40625 343.6875 213.386719 340.574219 207.433594 324.0625 C 198.59375 299.5 163.953125 293.011719 145.898438 271.035156 C 151.628906 266.515625 156.738281 261.378906 161.226562 255.625 C 165.714844 249.867188 169.453125 243.664062 172.441406 237.003906 C 174.300781 232.550781 175.785156 227.972656 176.894531 223.273438 C 178.007812 218.578125 178.730469 213.820312 179.066406 209.007812 C 179.398438 204.191406 179.34375 199.378906 178.890625 194.574219 C 178.441406 189.769531 177.605469 185.03125 176.382812 180.359375 C 176.28125 179.972656 176.15625 179.59375 176.007812 179.222656 C 175.855469 178.847656 175.683594 178.488281 175.484375 178.140625 C 175.289062 177.792969 175.070312 177.457031 174.828125 177.136719 C 174.585938 176.816406 174.328125 176.511719 174.046875 176.226562 C 173.765625 175.941406 173.46875 175.671875 173.152344 175.425781 C 172.839844 175.179688 172.507812 174.953125 172.164062 174.746094 C 171.820312 174.542969 171.460938 174.363281 171.09375 174.203125 C 170.726562 174.046875 170.347656 173.914062 169.960938 173.804688 C 169.578125 173.695312 169.1875 173.609375 168.789062 173.554688 C 168.394531 173.496094 167.992188 173.464844 167.59375 173.457031 C 167.191406 173.453125 166.792969 173.472656 166.394531 173.519531 C 165.996094 173.566406 165.605469 173.636719 165.214844 173.734375 C 164.824219 173.832031 164.445312 173.953125 164.074219 174.101562 C 163.699219 174.25 163.339844 174.417969 162.988281 174.613281 C 162.636719 174.808594 162.300781 175.023438 161.980469 175.261719 C 161.65625 175.5 161.351562 175.757812 161.0625 176.039062 C 136.910156 199.140625 121.910156 188.273438 97.3125 218.597656 C 88.222656 229.792969 80.695312 250.519531 96.421875 285.648438 L 96.511719 285.855469 C 95.027344 291.351562 93.855469 296.910156 92.988281 302.535156 C 92.429688 301.90625 91.882812 301.296875 91.3125 300.695312 C 87.472656 274.84375 75.027344 254.925781 48.847656 258.046875 C 45.144531 258.714844 41.414062 258.890625 37.664062 258.574219 C 33.910156 258.257812 30.265625 257.457031 26.726562 256.175781 C 25.957031 255.878906 25.164062 255.691406 24.34375 255.605469 C 23.527344 255.523438 22.710938 255.550781 21.898438 255.691406 C 21.085938 255.828125 20.308594 256.074219 19.5625 256.421875 C 18.816406 256.769531 18.132812 257.214844 17.507812 257.75 C 16.882812 258.285156 16.335938 258.890625 15.878906 259.574219 C 15.417969 260.257812 15.054688 260.988281 14.792969 261.769531 C 14.527344 262.546875 14.375 263.347656 14.328125 264.171875 C 14.285156 264.992188 14.347656 265.808594 14.523438 266.613281 C 15.320312 270.316406 16.472656 273.90625 17.976562 277.382812 C 19.480469 280.859375 21.308594 284.15625 23.460938 287.273438 C 25.613281 290.390625 28.050781 293.269531 30.769531 295.90625 C 33.488281 298.546875 36.4375 300.894531 39.617188 302.953125 C 42.757812 304.929688 46.050781 306.597656 49.503906 307.964844 C 52.953125 309.328125 56.5 310.367188 60.140625 311.074219 C 63.785156 311.78125 67.460938 312.148438 71.167969 312.175781 C 74.878906 312.203125 78.5625 311.886719 82.214844 311.234375 C 84.417969 313.464844 86.277344 315.949219 87.792969 318.695312 C 89.308594 321.441406 90.421875 324.339844 91.132812 327.394531 C 91.171875 337.621094 92.21875 347.738281 94.28125 357.753906 C 96.34375 367.769531 99.375 377.480469 103.378906 386.890625 C 103.558594 387.308594 103.777344 387.703125 104.03125 388.074219 C 104.289062 388.449219 104.578125 388.792969 104.902344 389.109375 C 105.226562 389.425781 105.582031 389.707031 105.960938 389.953125 C 106.339844 390.199219 106.738281 390.40625 107.160156 390.574219 C 107.578125 390.742188 108.011719 390.867188 108.457031 390.953125 C 108.902344 391.035156 109.351562 391.074219 109.804688 391.070312 C 110.257812 391.0625 110.703125 391.015625 111.148438 390.921875 C 111.589844 390.828125 112.019531 390.695312 112.4375 390.515625 C 112.855469 390.339844 113.25 390.121094 113.621094 389.867188 C 113.996094 389.613281 114.34375 389.324219 114.660156 389 C 114.976562 388.675781 115.257812 388.324219 115.507812 387.945312 C 115.753906 387.566406 115.964844 387.167969 116.132812 386.75 C 116.304688 386.328125 116.429688 385.898438 116.515625 385.453125 C 116.601562 385.007812 116.640625 384.558594 116.636719 384.105469 C 116.636719 383.652344 116.585938 383.207031 116.496094 382.761719 C 116.40625 382.320312 116.269531 381.890625 116.09375 381.472656 C 113.046875 374.296875 110.613281 366.917969 108.792969 359.339844 C 106.972656 351.757812 105.792969 344.082031 105.25 336.304688 C 104.703125 328.527344 104.804688 320.757812 105.550781 313 C 106.300781 305.238281 107.683594 297.59375 109.699219 290.066406 C 118.425781 287.386719 126.695312 283.691406 134.511719 278.976562 C 154.746094 304.296875 187.65625 309.929688 194.4375 328.746094 C 198.59375 340.296875 189.671875 344.089844 196.359375 360.707031 C 197.308594 362.8125 198.421875 364.832031 199.703125 366.757812 C 200.980469 368.683594 202.40625 370.496094 203.980469 372.191406 C 205.550781 373.886719 207.25 375.441406 209.078125 376.859375 C 210.90625 378.28125 212.832031 379.539062 214.867188 380.644531 C 242.535156 398.800781 211.375 406.371094 217.011719 436.378906 C 217.46875 438.984375 218.160156 441.527344 219.085938 444.007812 C 220.007812 446.488281 221.148438 448.863281 222.507812 451.136719 C 223.863281 453.410156 225.417969 455.539062 227.164062 457.527344 C 228.914062 459.515625 230.828125 461.328125 232.90625 462.964844 C 240.859375 468.246094 249.496094 466.332031 252.363281 452.269531 C 253.070312 447.25 254.816406 442.625 257.59375 438.386719 C 276.003906 412.441406 296.851562 408.808594 312.273438 375.421875 C 321.644531 356.1875 323.835938 339.742188 304.511719 328.929688 C 297.449219 325.359375 290.902344 321.011719 284.871094 315.886719 C 276.242188 308.257812 271.621094 300.605469 257.652344 300.488281 C 242.761719 300.328125 243.941406 290.96875 223.261719 294.074219 C 212.054688 295.773438 207.265625 296.398438 194.171875 280.675781 C 189.097656 274.585938 178.351562 266.117188 182.121094 259.132812 C 184.710938 255.222656 207.546875 253.152344 223.660156 250.371094 C 235.792969 248.277344 258.214844 235.402344 257.796875 218.25 C 257.617188 216.777344 257.269531 215.34375 256.742188 213.957031 C 256.21875 212.570312 255.539062 211.265625 254.695312 210.042969 C 253.855469 208.820312 252.882812 207.714844 251.773438 206.726562 C 250.667969 205.742188 249.457031 204.902344 248.144531 204.207031 C 237.597656 196.445312 240.890625 194.472656 243.535156 185.847656 C 246.523438 185.738281 249.507812 185.828125 252.480469 186.121094 C 259.492188 198.132812 275.589844 210.953125 290.507812 208.101562 C 293.371094 207.394531 296.074219 206.296875 298.625 204.8125 C 301.171875 203.328125 303.460938 201.515625 305.488281 199.378906 C 311.804688 202.320312 317.871094 205.714844 323.683594 209.558594 C 322.632812 228.136719 335.800781 250.074219 360.484375 245.640625 C 361.78125 247.484375 363.007812 249.367188 364.214844 251.269531 C 361.53125 253.785156 359.257812 256.625 357.394531 259.792969 C 355.527344 262.960938 354.148438 266.328125 353.253906 269.894531 C 350.496094 280.546875 353.9375 286.351562 356.355469 299.109375 C 361.371094 325.578125 354.273438 340.199219 366.316406 345.339844 C 367.445312 345.746094 368.609375 346.003906 369.800781 346.117188 C 370.996094 346.226562 372.1875 346.191406 373.371094 346.003906 C 374.554688 345.816406 375.699219 345.484375 376.800781 345.011719 C 377.902344 344.539062 378.925781 343.933594 379.875 343.203125 C 381.539062 342.261719 383.585938 340.929688 385.324219 341.546875 C 384.953125 344.976562 384.457031 348.386719 383.835938 351.777344 C 383.214844 355.167969 382.46875 358.53125 381.601562 361.867188 C 380.730469 365.203125 379.742188 368.503906 378.628906 371.765625 C 377.519531 375.03125 376.289062 378.246094 374.941406 381.421875 C 373.59375 384.59375 372.128906 387.714844 370.550781 390.777344 C 368.972656 393.84375 367.285156 396.847656 365.484375 399.789062 C 363.6875 402.730469 361.78125 405.601562 359.773438 408.402344 C 357.761719 411.203125 355.652344 413.925781 353.441406 416.570312 C 351.234375 419.21875 348.929688 421.777344 346.53125 424.253906 C 344.132812 426.730469 341.644531 429.117188 339.070312 431.410156 C 336.496094 433.703125 333.84375 435.898438 331.105469 437.996094 C 328.371094 440.09375 325.5625 442.089844 322.679688 443.980469 C 319.796875 445.875 316.851562 447.65625 313.835938 449.332031 C 310.824219 451.007812 307.753906 452.566406 304.625 454.015625 C 301.496094 455.464844 298.316406 456.796875 295.09375 458.011719 C 291.867188 459.230469 288.597656 460.324219 285.292969 461.296875 C 281.984375 462.273438 278.648438 463.125 275.277344 463.855469 C 271.90625 464.585938 268.515625 465.1875 265.101562 465.667969 C 261.6875 466.148438 258.261719 466.503906 254.820312 466.730469 C 251.382812 466.957031 247.9375 467.058594 244.488281 467.035156 C 241.042969 467.007812 237.601562 466.855469 234.164062 466.578125 C 230.726562 466.300781 227.308594 465.894531 223.902344 465.363281 C 220.492188 464.835938 217.113281 464.179688 213.753906 463.402344 C 210.394531 462.621094 207.070312 461.722656 203.777344 460.695312 C 200.484375 459.671875 197.234375 458.53125 194.027344 457.269531 C 190.820312 456.003906 187.660156 454.625 184.554688 453.132812 C 181.449219 451.636719 178.402344 450.03125 175.414062 448.308594 C 172.425781 446.589844 169.503906 444.765625 166.648438 442.832031 C 163.796875 440.898438 161.015625 438.859375 158.3125 436.722656 C 155.609375 434.585938 152.984375 432.347656 150.445312 430.019531 C 147.90625 427.6875 145.453125 425.265625 143.09375 422.753906 C 140.730469 420.242188 138.464844 417.648438 136.292969 414.96875 C 136.007812 414.621094 135.6875 414.304688 135.339844 414.019531 C 134.988281 413.734375 134.613281 413.484375 134.214844 413.273438 C 133.820312 413.058594 133.402344 412.886719 132.972656 412.757812 C 132.539062 412.625 132.097656 412.539062 131.648438 412.492188 C 131.199219 412.449219 130.75 412.449219 130.300781 412.492188 C 129.851562 412.535156 129.414062 412.621094 128.980469 412.75 C 128.546875 412.882812 128.132812 413.050781 127.734375 413.261719 C 127.332031 413.472656 126.960938 413.722656 126.609375 414.003906 C 126.257812 414.289062 125.9375 414.605469 125.652344 414.953125 C 125.363281 415.300781 125.109375 415.671875 124.894531 416.070312 C 124.679688 416.464844 124.503906 416.878906 124.367188 417.308594 C 124.234375 417.742188 124.140625 418.179688 124.09375 418.628906 C 124.046875 419.078125 124.039062 419.527344 124.082031 419.976562 C 124.121094 420.425781 124.203125 420.867188 124.328125 421.300781 C 124.453125 421.734375 124.621094 422.152344 124.828125 422.550781 C 125.035156 422.953125 125.28125 423.328125 125.5625 423.683594 C 127.03125 425.492188 128.539062 427.269531 130.085938 429.007812 C 131.636719 430.75 133.222656 432.457031 134.847656 434.125 C 136.472656 435.796875 138.136719 437.429688 139.835938 439.023438 C 141.535156 440.617188 143.269531 442.171875 145.039062 443.6875 C 146.808594 445.207031 148.613281 446.679688 150.449219 448.113281 C 152.285156 449.550781 154.15625 450.941406 156.054688 452.292969 C 157.953125 453.640625 159.882812 454.949219 161.839844 456.210938 C 163.800781 457.472656 165.785156 458.691406 167.800781 459.863281 C 169.816406 461.035156 171.855469 462.160156 173.917969 463.242188 C 175.984375 464.324219 178.070312 465.355469 180.183594 466.339844 C 182.292969 467.328125 184.425781 468.265625 186.582031 469.15625 C 188.734375 470.042969 190.910156 470.882812 193.101562 471.675781 C 195.292969 472.464844 197.5 473.207031 199.726562 473.898438 C 201.953125 474.589844 204.191406 475.230469 206.449219 475.820312 C 208.703125 476.410156 210.96875 476.945312 213.246094 477.433594 C 215.527344 477.921875 217.816406 478.355469 220.113281 478.738281 C 222.414062 479.121094 224.71875 479.453125 227.03125 479.734375 C 229.347656 480.011719 231.664062 480.238281 233.988281 480.414062 C 236.3125 480.585938 238.640625 480.707031 240.96875 480.777344 C 243.296875 480.847656 245.628906 480.863281 247.957031 480.824219 C 250.289062 480.789062 252.617188 480.699219 254.941406 480.558594 C 257.269531 480.414062 259.589844 480.21875 261.90625 479.972656 C 264.222656 479.726562 266.535156 479.425781 268.839844 479.074219 C 271.140625 478.722656 273.4375 478.320312 275.722656 477.863281 C 278.007812 477.410156 280.28125 476.902344 282.542969 476.34375 C 284.808594 475.785156 287.054688 475.175781 289.289062 474.515625 C 291.523438 473.855469 293.742188 473.144531 295.945312 472.382812 C 298.148438 471.625 300.332031 470.8125 302.5 469.953125 C 304.667969 469.09375 306.8125 468.1875 308.9375 467.230469 C 311.0625 466.273438 313.164062 465.269531 315.242188 464.21875 C 317.324219 463.164062 319.378906 462.066406 321.40625 460.921875 C 323.4375 459.777344 325.441406 458.585938 327.417969 457.351562 C 329.390625 456.117188 331.339844 454.835938 333.257812 453.511719 C 335.175781 452.191406 337.0625 450.824219 338.917969 449.414062 C 340.773438 448.007812 342.597656 446.554688 344.390625 445.0625 C 346.179688 443.574219 347.933594 442.042969 349.65625 440.46875 C 351.378906 438.898438 353.0625 437.289062 354.710938 435.644531 C 356.359375 433.996094 357.96875 432.3125 359.542969 430.59375 C 361.113281 428.871094 362.648438 427.117188 364.140625 425.328125 C 365.632812 423.539062 367.085938 421.714844 368.496094 419.859375 C 369.90625 418.007812 371.273438 416.121094 372.597656 414.203125 C 373.921875 412.285156 375.203125 410.339844 376.441406 408.363281 C 377.675781 406.390625 378.871094 404.386719 380.015625 402.359375 C 381.160156 400.328125 382.261719 398.277344 383.316406 396.195312 C 384.367188 394.117188 385.375 392.015625 386.332031 389.890625 C 387.289062 387.769531 388.199219 385.625 389.0625 383.457031 C 389.921875 381.292969 390.734375 379.109375 391.496094 376.90625 C 392.257812 374.703125 392.972656 372.484375 393.632812 370.25 C 394.292969 368.015625 394.90625 365.769531 395.464844 363.507812 C 396.027344 361.246094 396.535156 358.972656 396.992188 356.6875 C 397.449219 354.402344 397.855469 352.105469 398.207031 349.804688 C 398.5625 347.5 398.863281 345.191406 399.113281 342.871094 C 399.359375 340.554688 399.554688 338.234375 399.699219 335.90625 C 399.84375 333.582031 399.933594 331.253906 399.972656 328.925781 C 400.011719 326.59375 399.996094 324.265625 399.929688 321.933594 C 399.863281 319.605469 399.742188 317.277344 399.570312 314.953125 C 399.398438 312.628906 399.175781 310.3125 398.898438 307.996094 C 398.621094 305.683594 398.289062 303.378906 397.910156 301.078125 C 397.527344 298.78125 397.09375 296.492188 396.609375 294.210938 C 396.121094 291.933594 395.585938 289.664062 395 287.410156 C 394.410156 285.15625 393.773438 282.914062 393.082031 280.6875 C 392.394531 278.460938 391.652344 276.253906 390.863281 274.058594 C 390.074219 271.867188 389.238281 269.695312 388.347656 267.539062 C 387.460938 265.382812 386.527344 263.25 385.542969 261.136719 C 384.558594 259.027344 383.527344 256.9375 382.445312 254.871094 C 381.367188 252.804688 380.242188 250.765625 379.070312 248.75 C 377.902344 246.734375 376.683594 244.75 375.421875 242.789062 C 374.164062 240.828125 372.859375 238.898438 371.507812 237 C 370.160156 235.097656 368.769531 233.230469 367.335938 231.390625 C 365.902344 229.554688 364.429688 227.75 362.914062 225.976562 C 361.402344 224.207031 359.847656 222.472656 358.253906 220.769531 C 356.660156 219.070312 355.027344 217.40625 353.359375 215.78125 C 351.691406 214.152344 349.988281 212.566406 348.246094 211.015625 C 346.507812 209.464844 344.730469 207.957031 342.921875 206.484375 C 341.113281 205.015625 339.273438 203.589844 337.398438 202.203125 C 335.527344 200.816406 333.621094 199.472656 331.6875 198.175781 C 329.753906 196.875 327.792969 195.617188 325.800781 194.40625 C 323.808594 193.195312 321.792969 192.03125 319.75 190.910156 C 317.703125 189.792969 315.636719 188.71875 313.542969 187.691406 C 311.453125 186.667969 309.339844 185.6875 307.203125 184.757812 C 305.066406 183.828125 302.910156 182.945312 300.730469 182.113281 C 298.554688 181.28125 296.359375 180.496094 294.148438 179.761719 C 291.9375 179.03125 289.710938 178.347656 287.46875 177.714844 C 285.222656 177.082031 282.96875 176.5 280.699219 175.96875 C 278.429688 175.4375 276.148438 174.960938 273.859375 174.53125 C 271.566406 174.105469 269.269531 173.730469 266.960938 173.40625 C 264.652344 173.082031 262.339844 172.8125 260.019531 172.59375 C 257.699219 172.375 255.375 172.207031 253.046875 172.09375 C 250.71875 171.980469 248.390625 171.921875 246.058594 171.914062 C 243.730469 171.90625 241.402344 171.949219 239.070312 172.046875 C 236.742188 172.144531 234.417969 172.292969 232.097656 172.496094 C 229.777344 172.699219 227.460938 172.953125 225.148438 173.261719 C 222.839844 173.570312 220.539062 173.929688 218.246094 174.339844 C 215.949219 174.753906 213.667969 175.214844 211.394531 175.730469 C 209.121094 176.246094 206.863281 176.8125 204.613281 177.429688 C 202.367188 178.046875 200.136719 178.714844 197.917969 179.433594 Z M 108.042969 227.300781 C 128.230469 202.429688 140.789062 210.558594 164.503906 191.375 C 165.640625 198.128906 165.808594 204.90625 165.011719 211.707031 C 164.214844 218.511719 162.484375 225.066406 159.820312 231.375 C 158.671875 233.808594 157.410156 236.183594 156.035156 238.496094 C 154.65625 240.808594 153.171875 243.046875 151.582031 245.21875 C 149.992188 247.386719 148.300781 249.476562 146.507812 251.484375 C 144.714844 253.492188 142.832031 255.410156 140.855469 257.234375 C 138.878906 259.0625 136.820312 260.789062 134.679688 262.417969 C 132.535156 264.046875 130.320312 265.570312 128.03125 266.988281 C 125.746094 268.402344 123.394531 269.707031 120.980469 270.898438 C 118.566406 272.085938 116.101562 273.160156 113.585938 274.113281 C 114.816406 270.371094 116.320312 266.742188 118.089844 263.222656 C 119.863281 259.707031 121.886719 256.339844 124.164062 253.121094 C 126.4375 249.90625 128.941406 246.875 131.667969 244.035156 C 134.394531 241.191406 137.320312 238.566406 140.4375 236.160156 C 140.792969 235.878906 141.113281 235.566406 141.40625 235.222656 C 141.699219 234.878906 141.957031 234.511719 142.175781 234.117188 C 142.398438 233.722656 142.578125 233.308594 142.71875 232.878906 C 142.855469 232.453125 142.953125 232.011719 143.007812 231.5625 C 143.058594 231.117188 143.070312 230.667969 143.035156 230.214844 C 143 229.765625 142.921875 229.324219 142.800781 228.886719 C 142.679688 228.453125 142.519531 228.035156 142.316406 227.628906 C 142.113281 227.226562 141.871094 226.847656 141.59375 226.492188 C 141.316406 226.136719 141.003906 225.808594 140.664062 225.515625 C 140.324219 225.21875 139.957031 224.960938 139.5625 224.738281 C 139.171875 224.511719 138.761719 224.328125 138.332031 224.1875 C 137.902344 224.042969 137.464844 223.945312 137.015625 223.886719 C 136.570312 223.828125 136.121094 223.816406 135.667969 223.847656 C 135.21875 223.878906 134.777344 223.953125 134.339844 224.070312 C 133.902344 224.1875 133.484375 224.347656 133.078125 224.546875 C 132.671875 224.75 132.292969 224.984375 131.933594 225.261719 C 125.566406 230.183594 119.929688 235.839844 115.035156 242.226562 C 110.136719 248.613281 106.136719 255.523438 103.035156 262.953125 C 99.304688 248.054688 100.925781 236.078125 108.042969 227.300781 Z M 30.570312 271.59375 C 37.191406 272.71875 43.820312 272.777344 50.460938 271.773438 C 51.640625 271.558594 52.832031 271.453125 54.035156 271.453125 C 55.234375 271.453125 56.425781 271.5625 57.609375 271.78125 C 58.789062 272 59.941406 272.324219 61.0625 272.753906 C 62.183594 273.183594 63.257812 273.710938 64.28125 274.335938 C 65.308594 274.960938 66.269531 275.671875 67.164062 276.472656 C 68.0625 277.273438 68.878906 278.148438 69.613281 279.09375 C 70.347656 280.042969 70.992188 281.050781 71.546875 282.117188 C 72.097656 283.183594 72.550781 284.292969 72.898438 285.441406 C 68.648438 282.457031 64.042969 280.1875 59.085938 278.632812 C 58.652344 278.503906 58.210938 278.417969 57.761719 278.378906 C 57.3125 278.335938 56.863281 278.339844 56.414062 278.386719 C 55.964844 278.433594 55.527344 278.523438 55.09375 278.65625 C 54.664062 278.789062 54.25 278.960938 53.851562 279.175781 C 53.453125 279.390625 53.082031 279.640625 52.734375 279.929688 C 52.382812 280.214844 52.066406 280.535156 51.78125 280.882812 C 51.496094 281.234375 51.246094 281.609375 51.035156 282.003906 C 50.820312 282.402344 50.648438 282.820312 50.515625 283.25 C 50.386719 283.683594 50.296875 284.125 50.253906 284.574219 C 50.207031 285.023438 50.207031 285.472656 50.25 285.921875 C 50.292969 286.371094 50.378906 286.8125 50.507812 287.242188 C 50.636719 287.675781 50.808594 288.09375 51.019531 288.492188 C 51.230469 288.890625 51.476562 289.265625 51.761719 289.617188 C 52.046875 289.964844 52.363281 290.285156 52.707031 290.574219 C 53.054688 290.863281 53.425781 291.117188 53.824219 291.332031 C 54.21875 291.546875 54.632812 291.722656 55.0625 291.859375 C 59.433594 293.175781 63.414062 295.238281 67.007812 298.050781 C 63.460938 297.742188 60.003906 297.019531 56.632812 295.878906 C 53.261719 294.738281 50.074219 293.21875 47.066406 291.3125 C 43.375 288.949219 40.121094 286.082031 37.308594 282.71875 C 34.492188 279.355469 32.25 275.648438 30.570312 271.59375 Z M 272.589844 188.441406 C 278.761719 189.671875 284.820312 191.316406 290.765625 193.371094 C 284.929688 196.6875 277.789062 192.695312 272.589844 188.441406 Z M 340.132812 222.640625 C 343.234375 225.472656 346.203125 228.433594 349.042969 231.523438 C 347.019531 230.703125 345.234375 229.523438 343.6875 227.984375 C 342.140625 226.441406 340.957031 224.660156 340.132812 222.640625 Z M 372.558594 331.460938 C 372.675781 319.742188 371.800781 308.097656 369.933594 296.53125 C 367.804688 285.335938 365.082031 279.359375 366.628906 273.367188 C 367.542969 269.847656 369.078125 266.628906 371.238281 263.703125 C 376.242188 273.605469 380 283.960938 382.515625 294.765625 C 385.027344 305.574219 386.226562 316.523438 386.109375 327.617188 C 383.699219 327.472656 381.332031 327.730469 379.007812 328.390625 C 376.683594 329.046875 374.535156 330.070312 372.558594 331.460938 Z M 372.558594 331.460938 " fill-opacity="1" fill-rule="nonzero"/><path fill="#16433b" d="M 126.03125 402.421875 C 126.03125 402.878906 125.988281 403.328125 125.898438 403.773438 C 125.808594 404.214844 125.679688 404.648438 125.503906 405.066406 C 125.332031 405.488281 125.117188 405.886719 124.867188 406.261719 C 124.613281 406.640625 124.328125 406.988281 124.007812 407.308594 C 123.6875 407.632812 123.335938 407.917969 122.960938 408.167969 C 122.582031 408.421875 122.183594 408.632812 121.765625 408.808594 C 121.34375 408.980469 120.914062 409.113281 120.46875 409.203125 C 120.023438 409.289062 119.574219 409.335938 119.121094 409.335938 C 118.667969 409.335938 118.214844 409.289062 117.773438 409.203125 C 117.328125 409.113281 116.894531 408.980469 116.476562 408.808594 C 116.054688 408.632812 115.65625 408.421875 115.28125 408.167969 C 114.902344 407.917969 114.554688 407.632812 114.234375 407.308594 C 113.914062 406.988281 113.625 406.640625 113.375 406.261719 C 113.121094 405.886719 112.910156 405.488281 112.734375 405.066406 C 112.5625 404.648438 112.429688 404.214844 112.339844 403.773438 C 112.253906 403.328125 112.207031 402.878906 112.207031 402.421875 C 112.207031 401.96875 112.253906 401.519531 112.339844 401.074219 C 112.429688 400.628906 112.5625 400.199219 112.734375 399.777344 C 112.910156 399.359375 113.121094 398.960938 113.375 398.582031 C 113.625 398.207031 113.914062 397.855469 114.234375 397.535156 C 114.554688 397.214844 114.902344 396.929688 115.28125 396.675781 C 115.65625 396.425781 116.054688 396.210938 116.476562 396.039062 C 116.894531 395.863281 117.328125 395.734375 117.773438 395.644531 C 118.214844 395.558594 118.667969 395.511719 119.121094 395.511719 C 119.574219 395.511719 120.023438 395.558594 120.46875 395.644531 C 120.914062 395.734375 121.34375 395.863281 121.765625 396.039062 C 122.183594 396.210938 122.582031 396.425781 122.960938 396.675781 C 123.335938 396.929688 123.6875 397.214844 124.007812 397.535156 C 124.328125 397.855469 124.613281 398.207031 124.867188 398.582031 C 125.117188 398.960938 125.332031 399.359375 125.503906 399.777344 C 125.679688 400.199219 125.808594 400.628906 125.898438 401.074219 C 125.988281 401.519531 126.03125 401.96875 126.03125 402.421875 Z M 126.03125 402.421875 " fill-opacity="1" fill-rule="nonzero"/></svg>