<svg xmlns="http://www.w3.org/2000/svg" xmlns:xlink="http://www.w3.org/1999/xlink" width="250" zoomAndPan="magnify" viewBox="0 0 187.5 187.499992" height="250" preserveAspectRatio="xMidYMid meet" version="1.0"><defs><clipPath id="6e269f35eb"><path d="M 10.660156 29 L 169 29 L 169 157 L 10.660156 157 Z M 10.660156 29 " clip-rule="nonzero"/></clipPath></defs><path fill="#16433b" d="M 73.96875 137.699219 C 69.800781 134.75 66.121094 131.289062 62.917969 127.3125 C 59.71875 123.335938 57.125 119 55.136719 114.300781 C 54.996094 113.957031 54.925781 113.597656 54.925781 113.226562 C 54.925781 112.851562 54.996094 112.496094 55.136719 112.152344 C 55.28125 111.808594 55.480469 111.503906 55.742188 111.238281 C 56.003906 110.976562 56.308594 110.769531 56.648438 110.625 C 56.992188 110.480469 57.351562 110.40625 57.722656 110.402344 C 58.09375 110.398438 58.453125 110.464844 58.796875 110.601562 C 59.144531 110.742188 59.449219 110.9375 59.714844 111.199219 C 59.984375 111.457031 60.191406 111.757812 60.339844 112.097656 C 62.125 116.3125 64.453125 120.203125 67.324219 123.773438 C 70.195312 127.339844 73.496094 130.445312 77.234375 133.089844 C 77.539062 133.308594 77.789062 133.574219 77.984375 133.890625 C 78.183594 134.207031 78.3125 134.550781 78.375 134.917969 C 78.4375 135.285156 78.425781 135.652344 78.34375 136.015625 C 78.257812 136.382812 78.109375 136.714844 77.894531 137.019531 C 77.679688 137.324219 77.414062 137.578125 77.097656 137.777344 C 76.78125 137.976562 76.4375 138.105469 76.070312 138.171875 C 75.703125 138.234375 75.335938 138.226562 74.972656 138.144531 C 74.609375 138.0625 74.273438 137.914062 73.96875 137.699219 Z M 73.96875 137.699219 " fill-opacity="1" fill-rule="nonzero"/><path fill="#16433b" d="M 52.367188 105.886719 C 52.003906 104.398438 51.707031 102.867188 51.476562 101.335938 C 51.421875 100.96875 51.441406 100.601562 51.53125 100.242188 C 51.625 99.878906 51.78125 99.550781 52.003906 99.25 C 52.226562 98.953125 52.496094 98.707031 52.816406 98.511719 C 53.132812 98.320312 53.476562 98.195312 53.847656 98.140625 C 54.214844 98.085938 54.582031 98.101562 54.941406 98.191406 C 55.304688 98.28125 55.636719 98.433594 55.9375 98.652344 C 56.238281 98.875 56.484375 99.144531 56.679688 99.460938 C 56.875 99.777344 57 100.121094 57.058594 100.492188 C 57.269531 101.863281 57.535156 103.230469 57.855469 104.554688 C 57.945312 104.917969 57.957031 105.285156 57.898438 105.65625 C 57.839844 106.023438 57.714844 106.367188 57.519531 106.6875 C 57.324219 107.003906 57.074219 107.273438 56.773438 107.496094 C 56.46875 107.714844 56.136719 107.867188 55.773438 107.957031 C 55.410156 108.042969 55.042969 108.058594 54.675781 108.003906 C 54.304688 107.945312 53.960938 107.820312 53.644531 107.625 C 53.324219 107.429688 53.054688 107.183594 52.832031 106.882812 C 52.609375 106.582031 52.457031 106.25 52.367188 105.886719 Z M 52.367188 105.886719 " fill-opacity="1" fill-rule="nonzero"/><g clip-path="url(#6e269f35eb)"><path fill="#16433b" d="M 86.046875 32.992188 C 85.695312 33.109375 85.378906 33.292969 85.09375 33.535156 C 84.8125 33.777344 84.585938 34.066406 84.417969 34.398438 C 84.25 34.730469 84.152344 35.082031 84.125 35.453125 C 84.09375 35.824219 84.136719 36.1875 84.253906 36.542969 C 84.367188 36.898438 84.542969 37.214844 84.785156 37.5 C 85.027344 37.785156 85.3125 38.011719 85.644531 38.183594 C 85.976562 38.355469 86.324219 38.457031 86.695312 38.488281 C 87.066406 38.519531 87.429688 38.480469 87.785156 38.367188 C 91.289062 37.25 94.867188 36.476562 98.519531 36.050781 C 96.773438 41.109375 99.152344 44.671875 103.230469 47.671875 C 103.820312 48.066406 104.367188 48.511719 104.875 49 C 104.949219 51.992188 99.152344 55.816406 95.613281 56.425781 C 85.3125 58.199219 77.125 58.246094 74.621094 62.886719 C 70.964844 69.671875 77.816406 75.175781 80.175781 78 C 86.835938 85.984375 90.640625 86.449219 97.253906 85.445312 C 103.25 84.542969 103.34375 88.070312 110.417969 88.132812 C 113.589844 88.167969 115.445312 90.878906 117.847656 93.007812 C 120.613281 95.375 123.621094 97.386719 126.867188 99.039062 C 132.121094 101.980469 129.75 106.214844 127.664062 110.746094 C 121.992188 123.039062 113.949219 124.15625 105.835938 135.585938 C 104.191406 138.015625 103.15625 140.679688 102.734375 143.582031 C 101 141.699219 99.894531 139.503906 99.40625 136.992188 C 97.808594 128.472656 111.304688 120.527344 96.078125 110.527344 C 94.894531 109.929688 93.835938 109.152344 92.910156 108.207031 C 91.980469 107.257812 91.230469 106.183594 90.652344 104.988281 C 88.699219 100.140625 92.371094 98.871094 89.9375 92.121094 C 86.324219 82.078125 72.164062 79.425781 64.78125 70.441406 C 67.125 68.59375 69.214844 66.492188 71.046875 64.140625 C 72.882812 61.789062 74.410156 59.25 75.632812 56.53125 C 77.164062 52.863281 78.066406 49.046875 78.339844 45.082031 C 78.617188 41.121094 78.25 37.214844 77.246094 33.371094 C 77.160156 33.054688 77.039062 32.753906 76.878906 32.464844 C 76.714844 32.179688 76.519531 31.917969 76.289062 31.683594 C 76.058594 31.449219 75.804688 31.246094 75.519531 31.078125 C 75.238281 30.910156 74.9375 30.78125 74.621094 30.691406 C 74.304688 30.601562 73.980469 30.554688 73.652344 30.550781 C 73.324219 30.546875 73 30.585938 72.679688 30.664062 C 72.359375 30.746094 72.054688 30.863281 71.769531 31.023438 C 71.480469 31.183594 71.21875 31.378906 70.980469 31.605469 C 61.109375 41.050781 54.976562 36.605469 44.921875 49.003906 C 41.203125 53.582031 38.128906 62.054688 44.554688 76.414062 L 44.59375 76.5 C 43.988281 78.746094 43.507812 81.019531 43.152344 83.320312 C 42.925781 83.0625 42.699219 82.8125 42.46875 82.566406 C 40.898438 72 35.808594 63.855469 25.105469 65.132812 C 22.023438 65.6875 19.007812 65.433594 16.0625 64.367188 C 15.425781 64.121094 14.765625 64.054688 14.089844 64.167969 C 13.414062 64.285156 12.816406 64.5625 12.292969 65.011719 C 11.773438 65.457031 11.402344 66.003906 11.183594 66.652344 C 10.964844 67.304688 10.929688 67.964844 11.074219 68.632812 C 11.402344 70.148438 11.871094 71.613281 12.488281 73.035156 C 13.101562 74.457031 13.847656 75.804688 14.730469 77.082031 C 15.609375 78.355469 16.605469 79.53125 17.714844 80.609375 C 18.828125 81.6875 20.03125 82.648438 21.332031 83.492188 C 22.617188 84.296875 23.964844 84.980469 25.375 85.539062 C 26.785156 86.097656 28.234375 86.519531 29.722656 86.808594 C 31.214844 87.097656 32.714844 87.25 34.234375 87.261719 C 35.75 87.269531 37.253906 87.144531 38.746094 86.875 C 40.585938 88.734375 41.800781 90.9375 42.394531 93.480469 C 42.425781 101.925781 44.09375 110.035156 47.402344 117.804688 C 47.546875 118.148438 47.757812 118.449219 48.023438 118.710938 C 48.292969 118.972656 48.597656 119.171875 48.945312 119.3125 C 49.292969 119.449219 49.652344 119.515625 50.027344 119.511719 C 50.402344 119.507812 50.757812 119.433594 51.101562 119.285156 C 51.445312 119.140625 51.75 118.933594 52.011719 118.667969 C 52.273438 118.398438 52.472656 118.09375 52.613281 117.746094 C 52.753906 117.398438 52.824219 117.039062 52.820312 116.667969 C 52.816406 116.292969 52.742188 115.933594 52.597656 115.589844 C 51.351562 112.65625 50.359375 109.640625 49.613281 106.539062 C 48.871094 103.441406 48.386719 100.304688 48.164062 97.125 C 47.941406 93.945312 47.984375 90.769531 48.289062 87.597656 C 48.59375 84.425781 49.160156 81.300781 49.984375 78.222656 C 53.550781 77.125 56.933594 75.617188 60.128906 73.6875 C 68.398438 84.039062 81.855469 86.34375 84.625 94.035156 C 86.324219 98.757812 82.675781 100.308594 85.410156 107.101562 C 86.195312 108.835938 87.230469 110.398438 88.527344 111.796875 C 89.820312 113.191406 91.304688 114.34375 92.976562 115.25 C 104.289062 122.671875 91.550781 125.769531 93.855469 138.035156 C 94.230469 140.183594 94.980469 142.195312 96.101562 144.070312 C 97.21875 145.941406 98.636719 147.554688 100.351562 148.90625 C 103.605469 151.0625 107.136719 150.28125 108.304688 144.53125 C 108.597656 142.480469 109.308594 140.589844 110.445312 138.859375 C 117.972656 128.25 126.496094 126.765625 132.796875 113.117188 C 136.628906 105.253906 137.523438 98.53125 129.625 94.109375 C 126.738281 92.648438 124.0625 90.871094 121.597656 88.777344 C 118.070312 85.660156 116.179688 82.53125 110.46875 82.484375 C 104.382812 82.417969 104.863281 78.589844 96.410156 79.859375 C 91.828125 80.554688 89.871094 80.8125 84.519531 74.382812 C 82.441406 71.894531 78.050781 68.429688 79.589844 65.578125 C 80.648438 63.976562 89.984375 63.132812 96.570312 61.992188 C 101.53125 61.136719 110.699219 55.875 110.527344 48.863281 C 110.378906 47.640625 109.957031 46.523438 109.261719 45.507812 C 108.5625 44.492188 107.671875 43.699219 106.582031 43.121094 C 102.269531 39.949219 103.617188 39.140625 104.699219 35.617188 C 105.917969 35.570312 107.136719 35.609375 108.355469 35.726562 C 111.21875 40.640625 117.800781 45.878906 123.898438 44.714844 C 126.289062 44.121094 128.332031 42.933594 130.023438 41.148438 C 132.609375 42.351562 135.085938 43.738281 137.464844 45.308594 C 137.03125 52.902344 142.417969 61.875 152.507812 60.0625 C 153.039062 60.8125 153.539062 61.582031 154.03125 62.363281 C 151.792969 64.460938 150.296875 67 149.550781 69.976562 C 148.425781 74.328125 149.832031 76.703125 150.820312 81.917969 C 152.871094 92.738281 149.96875 98.71875 154.890625 100.820312 C 155.832031 101.15625 156.792969 101.246094 157.777344 101.089844 C 158.757812 100.933594 159.644531 100.550781 160.433594 99.945312 C 161.113281 99.558594 161.953125 99.015625 162.664062 99.269531 C 162.511719 100.667969 162.308594 102.0625 162.054688 103.449219 C 161.800781 104.835938 161.496094 106.210938 161.140625 107.574219 C 160.785156 108.9375 160.378906 110.289062 159.925781 111.621094 C 159.472656 112.957031 158.96875 114.269531 158.417969 115.570312 C 157.867188 116.867188 157.269531 118.140625 156.621094 119.394531 C 155.976562 120.648438 155.289062 121.875 154.550781 123.078125 C 153.816406 124.28125 153.039062 125.453125 152.214844 126.597656 C 151.394531 127.742188 150.53125 128.855469 149.628906 129.9375 C 148.726562 131.019531 147.78125 132.066406 146.800781 133.078125 C 145.820312 134.09375 144.804688 135.066406 143.753906 136.003906 C 142.699219 136.941406 141.617188 137.839844 140.496094 138.699219 C 139.378906 139.554688 138.230469 140.371094 137.050781 141.144531 C 135.875 141.917969 134.667969 142.644531 133.4375 143.332031 C 132.207031 144.015625 130.949219 144.65625 129.671875 145.246094 C 128.390625 145.839844 127.09375 146.382812 125.773438 146.878906 C 124.457031 147.378906 123.121094 147.824219 121.769531 148.222656 C 120.417969 148.621094 119.050781 148.96875 117.675781 149.269531 C 116.296875 149.566406 114.910156 149.8125 113.515625 150.011719 C 112.117188 150.207031 110.71875 150.351562 109.3125 150.445312 C 107.90625 150.539062 106.496094 150.578125 105.085938 150.566406 C 103.679688 150.558594 102.269531 150.496094 100.867188 150.382812 C 99.460938 150.269531 98.0625 150.101562 96.671875 149.886719 C 95.277344 149.667969 93.894531 149.402344 92.523438 149.082031 C 91.148438 148.765625 89.789062 148.394531 88.445312 147.976562 C 87.097656 147.558594 85.769531 147.089844 84.457031 146.574219 C 83.148438 146.058594 81.855469 145.496094 80.585938 144.882812 C 79.316406 144.273438 78.070312 143.617188 76.847656 142.914062 C 75.625 142.210938 74.433594 141.464844 73.265625 140.671875 C 72.097656 139.882812 70.960938 139.050781 69.855469 138.175781 C 68.75 137.300781 67.679688 136.386719 66.640625 135.4375 C 65.601562 134.484375 64.601562 133.492188 63.636719 132.464844 C 62.671875 131.4375 61.742188 130.378906 60.855469 129.285156 C 60.617188 128.996094 60.335938 128.765625 60.007812 128.589844 C 59.679688 128.414062 59.328125 128.308594 58.957031 128.273438 C 58.585938 128.234375 58.222656 128.269531 57.867188 128.375 C 57.507812 128.484375 57.1875 128.65625 56.898438 128.890625 C 56.609375 129.125 56.375 129.40625 56.195312 129.734375 C 56.019531 130.058594 55.910156 130.410156 55.867188 130.78125 C 55.828125 131.148438 55.859375 131.515625 55.964844 131.871094 C 56.070312 132.230469 56.238281 132.554688 56.46875 132.84375 C 57.671875 134.324219 58.933594 135.75 60.265625 137.117188 C 61.59375 138.480469 62.984375 139.785156 64.429688 141.023438 C 65.878906 142.265625 67.378906 143.4375 68.933594 144.542969 C 70.488281 145.644531 72.089844 146.675781 73.738281 147.636719 C 75.382812 148.597656 77.070312 149.480469 78.796875 150.285156 C 80.527344 151.089844 82.285156 151.816406 84.078125 152.464844 C 85.871094 153.113281 87.691406 153.675781 89.535156 154.160156 C 91.378906 154.640625 93.242188 155.039062 95.121094 155.351562 C 97.003906 155.667969 98.894531 155.894531 100.792969 156.039062 C 102.695312 156.179688 104.597656 156.234375 106.503906 156.207031 C 108.410156 156.175781 110.3125 156.058594 112.207031 155.859375 C 114.105469 155.65625 115.984375 155.367188 117.855469 154.996094 C 119.726562 154.625 121.574219 154.167969 123.402344 153.625 C 125.230469 153.085938 127.03125 152.464844 128.804688 151.761719 C 130.574219 151.058594 132.3125 150.277344 134.011719 149.417969 C 135.714844 148.554688 137.371094 147.621094 138.988281 146.609375 C 140.605469 145.597656 142.171875 144.519531 143.691406 143.363281 C 145.210938 142.210938 146.671875 140.992188 148.082031 139.707031 C 149.488281 138.421875 150.835938 137.078125 152.121094 135.671875 C 153.410156 134.261719 154.628906 132.800781 155.78125 131.285156 C 156.9375 129.765625 158.019531 128.199219 159.03125 126.582031 C 160.042969 124.96875 160.980469 123.308594 161.839844 121.609375 C 162.703125 119.910156 163.484375 118.171875 164.191406 116.402344 C 164.894531 114.628906 165.515625 112.832031 166.058594 111.003906 C 166.601562 109.175781 167.058594 107.324219 167.433594 105.457031 C 167.804688 103.585938 168.09375 101.703125 168.296875 99.808594 C 168.503906 97.914062 168.621094 96.011719 168.652344 94.105469 C 168.683594 92.203125 168.628906 90.296875 168.488281 88.394531 C 168.34375 86.496094 168.117188 84.605469 167.808594 82.722656 C 167.496094 80.84375 167.097656 78.980469 166.617188 77.136719 C 166.136719 75.292969 165.574219 73.472656 164.925781 71.679688 C 164.28125 69.882812 163.554688 68.125 162.75 66.394531 C 161.945312 64.667969 161.0625 62.980469 160.105469 61.332031 C 159.148438 59.683594 158.117188 58.082031 157.015625 56.527344 C 155.910156 54.972656 154.742188 53.472656 153.5 52.023438 C 152.261719 50.574219 150.960938 49.183594 149.59375 47.851562 C 148.230469 46.523438 146.808594 45.253906 145.328125 44.054688 C 143.847656 42.851562 142.316406 41.71875 140.734375 40.65625 C 139.152344 39.59375 137.527344 38.601562 135.855469 37.6875 C 134.183594 36.769531 132.472656 35.933594 130.726562 35.171875 C 128.976562 34.410156 127.199219 33.730469 125.390625 33.128906 C 123.578125 32.527344 121.746094 32.011719 119.890625 31.578125 C 118.035156 31.144531 116.160156 30.792969 114.273438 30.53125 C 112.386719 30.265625 110.488281 30.085938 108.585938 29.992188 C 106.683594 29.902344 104.777344 29.894531 102.871094 29.972656 C 100.96875 30.054688 99.070312 30.21875 97.179688 30.472656 C 95.292969 30.722656 93.417969 31.058594 91.558594 31.480469 C 89.699219 31.902344 87.863281 32.40625 86.046875 32.992188 Z M 49.308594 52.5625 C 57.558594 42.394531 62.695312 45.71875 72.390625 37.875 C 72.851562 40.636719 72.921875 43.40625 72.597656 46.1875 C 72.269531 48.96875 71.5625 51.648438 70.472656 54.226562 C 69.53125 56.222656 68.410156 58.109375 67.105469 59.886719 C 65.800781 61.664062 64.339844 63.304688 62.71875 64.800781 C 61.101562 66.296875 59.355469 67.625 57.480469 68.785156 C 55.605469 69.949219 53.636719 70.917969 51.574219 71.699219 C 52.585938 68.625 54.027344 65.761719 55.898438 63.117188 C 57.769531 60.472656 59.984375 58.164062 62.550781 56.183594 C 62.84375 55.953125 63.078125 55.675781 63.261719 55.347656 C 63.441406 55.023438 63.554688 54.675781 63.601562 54.304688 C 63.644531 53.933594 63.617188 53.570312 63.515625 53.210938 C 63.417969 52.851562 63.25 52.527344 63.023438 52.230469 C 62.792969 51.9375 62.515625 51.699219 62.191406 51.515625 C 61.867188 51.328125 61.523438 51.214844 61.152344 51.167969 C 60.78125 51.121094 60.417969 51.144531 60.058594 51.242188 C 59.699219 51.339844 59.371094 51.5 59.074219 51.730469 C 56.46875 53.742188 54.167969 56.054688 52.164062 58.664062 C 50.164062 61.277344 48.527344 64.101562 47.261719 67.136719 C 45.734375 61.046875 46.398438 56.152344 49.308594 52.5625 Z M 17.636719 70.671875 C 20.34375 71.128906 23.050781 71.15625 25.765625 70.742188 C 26.25 70.65625 26.738281 70.613281 27.226562 70.613281 C 27.71875 70.613281 28.207031 70.65625 28.6875 70.746094 C 29.171875 70.835938 29.640625 70.96875 30.101562 71.144531 C 30.558594 71.320312 30.996094 71.535156 31.417969 71.789062 C 31.835938 72.046875 32.230469 72.335938 32.59375 72.664062 C 32.960938 72.992188 33.296875 73.347656 33.597656 73.738281 C 33.898438 74.125 34.160156 74.535156 34.386719 74.972656 C 34.613281 75.410156 34.796875 75.863281 34.941406 76.332031 C 33.203125 75.109375 31.320312 74.183594 29.292969 73.546875 C 28.933594 73.441406 28.570312 73.410156 28.199219 73.445312 C 27.828125 73.484375 27.480469 73.59375 27.152344 73.769531 C 26.824219 73.945312 26.542969 74.179688 26.304688 74.46875 C 26.070312 74.757812 25.898438 75.078125 25.789062 75.4375 C 25.679688 75.792969 25.644531 76.15625 25.679688 76.527344 C 25.714844 76.898438 25.820312 77.25 25.996094 77.578125 C 26.167969 77.90625 26.398438 78.191406 26.683594 78.429688 C 26.972656 78.667969 27.292969 78.84375 27.648438 78.953125 C 29.433594 79.492188 31.0625 80.335938 32.53125 81.488281 C 29.589844 81.230469 26.871094 80.3125 24.378906 78.730469 C 22.871094 77.765625 21.539062 76.59375 20.390625 75.21875 C 19.238281 73.84375 18.320312 72.328125 17.636719 70.671875 Z M 116.574219 36.675781 C 119.097656 37.179688 121.574219 37.851562 124.007812 38.691406 C 121.621094 40.046875 118.699219 38.414062 116.574219 36.675781 Z M 144.1875 50.65625 C 145.457031 51.816406 146.667969 53.023438 147.828125 54.289062 C 147.003906 53.953125 146.273438 53.472656 145.640625 52.839844 C 145.007812 52.210938 144.523438 51.484375 144.1875 50.65625 Z M 157.445312 95.144531 C 157.492188 90.355469 157.132812 85.59375 156.371094 80.863281 C 155.5 76.289062 154.386719 73.84375 155.019531 71.394531 C 155.394531 69.957031 156.019531 68.640625 156.902344 67.445312 C 158.949219 71.492188 160.484375 75.726562 161.511719 80.144531 C 162.542969 84.5625 163.03125 89.039062 162.984375 93.574219 C 160.953125 93.449219 159.109375 93.976562 157.445312 95.144531 Z M 157.445312 95.144531 " fill-opacity="1" fill-rule="nonzero"/></g><path fill="#16433b" d="M 56.660156 124.15625 C 56.660156 124.527344 56.589844 124.890625 56.445312 125.234375 C 56.300781 125.582031 56.097656 125.886719 55.832031 126.152344 C 55.566406 126.417969 55.261719 126.621094 54.917969 126.765625 C 54.570312 126.90625 54.210938 126.980469 53.835938 126.980469 C 53.460938 126.980469 53.101562 126.90625 52.753906 126.765625 C 52.40625 126.621094 52.101562 126.417969 51.835938 126.152344 C 51.574219 125.886719 51.367188 125.582031 51.226562 125.234375 C 51.082031 124.890625 51.011719 124.527344 51.011719 124.15625 C 51.011719 123.78125 51.082031 123.417969 51.226562 123.074219 C 51.367188 122.726562 51.574219 122.421875 51.835938 122.15625 C 52.101562 121.890625 52.40625 121.6875 52.753906 121.542969 C 53.101562 121.402344 53.460938 121.328125 53.835938 121.328125 C 54.210938 121.328125 54.570312 121.402344 54.917969 121.542969 C 55.261719 121.6875 55.566406 121.890625 55.832031 122.15625 C 56.097656 122.421875 56.300781 122.726562 56.445312 123.074219 C 56.589844 123.417969 56.660156 123.78125 56.660156 124.15625 Z M 56.660156 124.15625 " fill-opacity="1" fill-rule="nonzero"/></svg>