<?xml version="1.0" encoding="UTF-8"?>
<!DOCTYPE svg PUBLIC "-//W3C//DTD SVG 1.1//EN" "http://www.w3.org/Graphics/SVG/1.1/DTD/svg11.dtd">
<!-- Creator: CorelDRAW -->
<svg xmlns="http://www.w3.org/2000/svg" xml:space="preserve" width="512px" height="512px" version="1.1" style="shape-rendering:geometricPrecision; text-rendering:geometricPrecision; image-rendering:optimizeQuality; fill-rule:evenodd; clip-rule:evenodd"
viewBox="0 0 512 512"
 xmlns:xlink="http://www.w3.org/1999/xlink">
 <defs>
  <style type="text/css">
   <![CDATA[
    .fil0 {fill:black}
   ]]>
  </style>
 </defs>
 <g id="Layer_x0020_1">
  <metadata id="CorelCorpID_0Corel-Layer"/>
  <g id="_475091080">
   <g>
    <path class="fil0" d="M256 512c-62,0 -121,-24 -165,-68 -45,-44 -69,-103 -69,-166 0,-30 6,-60 19,-92 1,-3 5,-5 9,-4 3,2 5,6 4,10 -12,29 -18,58 -18,86 0,121 99,220 220,220 121,0 220,-99 220,-220 0,-70 -33,-134 -89,-176 -3,-3 -4,-7 -2,-10 3,-3 7,-4 10,-2 29,22 53,50 69,82 17,33 26,69 26,106 0,63 -24,122 -69,166 -44,44 -103,68 -165,68zm-153 -395c-2,0 -4,-1 -5,-2 -3,-3 -3,-8 0,-10 22,-19 46,-34 72,-44 27,-11 56,-16 86,-16 11,0 23,0 33,2 4,1 6,4 6,8 -1,4 -5,7 -8,6 -10,-2 -20,-2 -31,-2 -55,0 -106,19 -148,56 -2,1 -3,2 -5,2z"/>
   </g>
   <g>
    <path class="fil0" d="M482 302c0,0 0,0 0,0 -4,0 -94,-6 -95,-61 0,-3 0,-7 0,-10 0,-20 -1,-28 -8,-35 -9,-9 -31,-17 -67,-28 -27,-9 -47,-24 -58,-45 -17,-34 -5,-72 -4,-73 1,-4 5,-6 8,-5 4,2 6,6 5,9 0,1 -11,34 4,63 9,17 26,30 49,37 40,13 61,21 73,31 12,12 12,25 12,45 0,4 0,7 0,11 1,42 81,47 82,47 4,0 6,3 6,7 0,4 -3,7 -7,7z"/>
   </g>
   <g>
    <path class="fil0" d="M198 505c-1,0 -1,0 -2,0 -3,-1 -6,-5 -5,-9 3,-12 14,-34 52,-48 53,-19 43,-50 37,-68 -1,-1 -1,-3 -2,-4 -2,-5 -17,-18 -38,-26 -13,-5 -37,-11 -56,-2 -9,5 -16,7 -22,7 -16,0 -25,-13 -35,-29 -5,-8 -11,-18 -19,-28 -12,-13 -40,-17 -78,-11 -4,0 -7,-2 -8,-6 0,-4 2,-7 6,-8 25,-4 70,-7 90,16 0,0 0,1 1,1 8,10 15,20 20,28 14,23 18,29 39,18 23,-12 52,-4 67,1 20,8 42,22 47,34 0,1 0,1 0,1 0,1 1,2 1,4 3,9 9,24 4,41 -4,19 -21,34 -49,44 -24,9 -39,23 -43,39 -1,3 -4,5 -7,5z"/>
   </g>
   <g>
    <path class="fil0" d="M129 253c-15,0 -31,-3 -41,-6 -23,-5 -51,-16 -57,-24 -2,-3 -1,-7 2,-10 3,-2 7,-1 10,2 2,3 23,12 50,19 29,7 51,6 62,-1 13,-10 3,-35 -8,-54 -14,-23 -10,-32 1,-47 5,-6 10,-14 15,-26 5,-11 6,-25 3,-38 -1,-3 2,-7 5,-8 4,-1 8,2 9,5 3,16 2,32 -4,46 0,1 0,1 0,1 -6,13 -12,22 -16,28 -9,13 -11,15 -1,32 0,0 0,0 0,0 11,18 16,33 16,45 1,12 -4,22 -13,28 -9,6 -21,8 -33,8zm41 -144l0 0 0 0z"/>
   </g>
   <g>
    <path class="fil0" d="M238 349c-2,0 -4,-1 -6,-3 -2,-4 -6,-9 -10,-14 -14,-20 -33,-46 -33,-63 0,-26 22,-48 49,-48 26,0 48,22 48,48 0,16 -16,39 -31,60 -4,6 -8,12 -11,17 -1,2 -3,3 -6,3 0,0 0,0 0,0zm0 -114c-19,0 -35,16 -35,34 0,13 19,38 31,55 1,2 3,4 4,5 2,-2 4,-5 6,-8 11,-16 28,-40 28,-52 0,-18 -16,-34 -34,-34z"/>
   </g>
   <g>
    <path class="fil0" d="M238 295c-15,0 -26,-11 -26,-26 0,-14 11,-25 26,-25 14,0 25,11 25,25 0,15 -11,26 -25,26zm0 -37c-7,0 -12,5 -12,11 0,7 5,12 12,12 6,0 11,-5 11,-12 0,-6 -5,-11 -11,-11z"/>
   </g>
   <g>
    <path class="fil0" d="M345 173c-2,0 -5,-1 -6,-3 -4,-6 -9,-14 -15,-22 -20,-27 -44,-61 -44,-83 0,-36 29,-65 65,-65 17,0 33,7 45,19 12,12 19,29 19,46 0,22 -24,57 -44,84 -5,8 -11,15 -14,21 -1,2 -4,3 -6,3zm0 -159c-28,0 -51,23 -51,51 0,17 24,51 41,75 4,5 7,9 10,13 3,-3 6,-8 9,-12 17,-25 41,-58 41,-76 0,-28 -22,-51 -50,-51z"/>
   </g>
   <g>
    <path class="fil0" d="M345 100c-20,0 -36,-16 -36,-35 0,-20 16,-36 36,-36 19,0 35,16 35,36 0,19 -16,35 -35,35zm0 -57c-12,0 -22,10 -22,22 0,11 10,21 22,21 11,0 21,-10 21,-21 0,-12 -10,-22 -21,-22z"/>
   </g>
   <g>
    <path class="fil0" d="M79 243c0,0 0,0 0,0 -2,0 -5,-1 -6,-3 -3,-6 -8,-13 -14,-20 -16,-23 -35,-50 -35,-68 0,-30 25,-55 55,-55 31,0 55,24 55,55 0,20 -21,49 -38,72 -4,6 -8,11 -11,16 -1,2 -4,3 -6,3zm0 -132c-23,0 -41,18 -41,41 0,14 19,41 33,60 3,4 6,8 8,12 2,-3 4,-5 6,-8 14,-19 35,-49 35,-64 0,-23 -18,-41 -41,-41z"/>
   </g>
   <g>
    <path class="fil0" d="M79 182c-17,0 -30,-13 -30,-30 0,-17 14,-31 30,-31 17,0 31,14 31,31 0,17 -14,30 -31,30zm0 -47c-9,0 -16,8 -16,17 0,9 7,16 16,16 9,0 17,-7 17,-16 0,-9 -8,-17 -17,-17z"/>
   </g>
  </g>
 </g>
</svg>
